<svg width="45" height="45" fill="none" xmlns="http://www.w3.org/2000/svg"><g clip-path="url(#clip0_27_301)"><path d="M22.5 45C34.926 45 45 34.926 45 22.5S34.926 0 22.5 0 0 10.074 0 22.5 10.074 45 22.5 45z" fill="#2F89CE"/><path d="M10.52 22.92l5.172 1.93 2.017 6.488c.088.438.614.526.964.263l2.894-2.367c.263-.264.701-.264 1.052 0l5.173 3.77c.35.263.876.087.964-.351l3.858-18.412c.087-.438-.351-.877-.79-.701L10.52 21.78c-.526.175-.526.965 0 1.14zm6.926.965l10.17-6.225c.176-.087.35.176.176.263l-8.33 7.804c-.263.262-.526.613-.526 1.052l-.263 2.104c0 .263-.438.35-.526 0l-1.052-3.858c-.263-.438-.087-.964.35-1.14z" fill="#fff"/></g><defs><clipPath id="clip0_27_301"><path fill="#fff" d="M0 0h45v45H0z"/></clipPath></defs></svg>