<svg width="45" height="45" fill="none" xmlns="http://www.w3.org/2000/svg"><g clip-path="url(#clip0_27_304)"><path d="M22.5 45C34.926 45 45 34.926 45 22.5S34.926 0 22.5 0 0 10.074 0 22.5 10.074 45 22.5 45z" fill="#7294C7"/><path d="M33.532 28.255c0-.094-.093-.094-.093-.187-.374-.747-1.215-1.681-2.335-2.709-.56-.467-.841-.84-1.028-1.027-.28-.374-.28-.654-.187-1.027.094-.28.467-.748 1.121-1.588.374-.467.56-.747.84-1.028 1.402-1.868 2.056-3.082 1.869-3.642l-.094-.094c-.093-.093-.187-.186-.373-.186-.187-.094-.467-.094-.748 0h-4.202l-.094.093c-.093.093-.093.093-.093.187-.374 1.027-.84 1.868-1.308 2.802-.28.467-.56.934-.84 1.307-.28.374-.467.654-.654.84-.187.188-.374.281-.467.468-.094.093-.28.187-.28.093-.094 0-.187 0-.187-.093l-.28-.28c-.094-.094-.094-.28-.187-.467v-4.67c0-.094-.094-.28-.094-.374l-.28-.28c-.093-.094-.28-.094-.373-.187a8.377 8.377 0 00-1.682-.187c-1.494 0-2.522.094-2.895.28-.187.094-.374.187-.467.374-.187.187-.187.28-.094.28.467.094.841.28 1.028.56l.093.188c.094.093.094.28.187.56s.093.56.093.934v1.494c0 .467-.093.747-.093 1.028 0 .28-.093.467-.187.56-.093.187-.093.28-.187.28 0 0 0 .094-.093.094s-.187.093-.374.093c-.093 0-.28-.093-.373-.187a1.125 1.125 0 01-.467-.467c-.187-.186-.374-.467-.56-.84-.187-.374-.468-.747-.654-1.308l-.187-.373c-.094-.187-.28-.56-.467-1.028-.187-.467-.374-.84-.56-1.308a1.29 1.29 0 00-.28-.373h-.094s-.094-.093-.187-.093-.187-.094-.28-.094h-3.363c-.373 0-.56.094-.653.187l-.094.093v.187c0 .093 0 .187.094.374.467 1.12 1.027 2.241 1.587 3.362.56 1.027 1.121 1.961 1.495 2.615.467.654.84 1.308 1.307 1.868.467.56.748.934.841 1.121l.374.374.28.28c.187.187.467.467.84.747.374.28.841.56 1.308.84.467.281 1.027.468 1.588.655.654.186 1.214.28 1.774.186h1.401c.28 0 .467-.093.654-.28l.094-.093c0-.094.093-.094.093-.187v-.374c0-.373 0-.653.094-.934.093-.28.093-.467.186-.653.094-.187.187-.28.28-.374l.187-.187h.094c.186-.093.467 0 .654.187.28.187.56.467.747.747.186.28.467.56.84.934.374.374.654.654.84.747l.281.187c.187.094.374.187.654.28.28.094.467.094.654.094l3.175-.094c.28 0 .56-.093.747-.186.187-.094.28-.187.28-.374v-.374c-.186-.186-.186-.28-.186-.373z" fill="#fff"/></g><defs><clipPath id="clip0_27_304"><path fill="#fff" d="M0 0h45v45H0z"/></clipPath></defs></svg>