<svg width="217" height="50" fill="none" xmlns="http://www.w3.org/2000/svg"><path d="M21.118 20.203c0 .93-.663 1.701-1.539 1.887h-.186c-.132 0-.265 0-.37.027a1.91 1.91 0 00-1.46 1.329c-.027.24-.027.478-.053.718a10.352 10.352 0 01-1.857 4.785l-.027.026c-.08.107-.159.24-.265.346a8.627 8.627 0 01-.929 1.037 10.444 10.444 0 01-3.82 2.392v.08c0 4.413 1.698 8.453 4.484 11.43.636.692 1.326 1.33 2.069 1.888.08.053.16.133.265.186l.053.053c.372.346.61.85.61 1.409a1.904 1.904 0 01-1.91 1.914 1.6 1.6 0 01-.796-.186c-.026 0-.053-.027-.053-.027C8.092 45.935 2.653 39.263.743 31.235A27.994 27.994 0 010 24.855C0 20.708.902 16.8 2.547 13.29A27.652 27.652 0 0115.334.213c.027-.027.053-.027.08-.054A1.94 1.94 0 0116.21 0c1.061 0 1.91.85 1.91 1.914 0 .558-.239 1.037-.61 1.409-.08.053-.16.133-.239.186a26.313 26.313 0 00-3.502 3.376c-.61.638-1.14 1.356-1.645 2.073a17.912 17.912 0 00-1.883 3.775 16.566 16.566 0 00-.929 5.53c0 1.142.106 2.232.318 3.322 0 .186.054.372.107.532.265.718.981 1.25 1.777 1.25.106 0 .212 0 .292-.027.239-.053.478-.133.69-.266.318-.186.557-.479.716-.798.053-.08.08-.16.106-.265a6.215 6.215 0 013.37-3.35 6.056 6.056 0 012.308-.452h.159c1.114.053 1.963.957 1.963 1.994z" fill="#DF6F26"/><path d="M16.794 10.713c-.319 1.037-3.37 2.605-3.582 2.685-.292.133-.557.266-.822.399-.451.186-1.141.584-1.566.717.053-.212.133-2.073 1.937-3.243a24.382 24.382 0 012.68-1.568c.159-.08.318-.16.504-.16h.132a.843.843 0 01.663.559c.107.212.054.558.054.61zm-1.38 3.775a.751.751 0 01-.106.398c-.133.24-.584.612-.743.745-.902.77-2.918 1.515-4.165 1.86-.053-.186.08-1.754.902-2.339.875-.611 2.573-1.355 2.839-1.409.026 0 .265-.08.398-.08h.08c.45.027.795.373.795.825zm3.077-8.48v.106c-.026.24-.185.399-.344.585-.213.24-1.353 1.276-2.574 1.994-.318.186-2.494 1.488-3.237 1.728.054-.346 1.752-3.217 2.733-3.882.663-.451 2.229-1.435 2.574-1.382h.132a.88.88 0 01.716.85zm19.394 4.705c.318 1.037 3.37 2.605 3.582 2.685.291.133.557.266.822.399.451.186 1.14.584 1.565.717-.053-.212-.132-2.073-1.936-3.243a24.38 24.38 0 00-2.68-1.568c-.16-.08-.318-.16-.504-.16h-.133a.843.843 0 00-.663.559c-.08.212-.053.558-.053.61zm1.38 3.775c0 .133.026.266.106.398.132.24.583.612.743.745.902.77 2.918 1.515 4.165 1.86.053-.186-.08-1.754-.902-2.339-.876-.611-2.574-1.355-2.839-1.409-.026 0-.265-.08-.398-.08h-.08c-.45.027-.795.373-.795.825zm-3.078-8.48v.106c.027.24.186.399.345.585.212.24 1.353 1.276 2.574 1.994.318.186 2.493 1.488 3.236 1.728-.053-.346-1.75-3.217-2.733-3.882-.663-.451-2.228-1.435-2.573-1.382h-.133a.881.881 0 00-.716.85z" fill="#DF6F26"/><path d="M33.56 20.203c0 .93.664 1.701 1.54 1.887h.185c.133 0 .265 0 .372.027a1.91 1.91 0 011.459 1.33c.026.238.026.478.053.717a10.352 10.352 0 001.857 4.785l.026.026c.08.107.16.24.266.346.291.372.583.718.928 1.037a10.445 10.445 0 003.82 2.392v.08c0 4.413-1.697 8.453-4.483 11.43a15.435 15.435 0 01-2.07 1.888c-.079.053-.158.133-.265.186l-.053.053c-.371.346-.61.85-.61 1.409 0 1.063.85 1.914 1.91 1.914a1.6 1.6 0 00.796-.186c.027 0 .053-.027.053-.027 7.243-3.562 12.682-10.234 14.592-18.262.477-2.047.743-4.174.743-6.38 0-4.147-.902-8.055-2.547-11.564A27.653 27.653 0 0039.344.213c-.026-.027-.053-.027-.08-.053A1.935 1.935 0 0038.47 0c-1.062 0-1.91.85-1.91 1.914 0 .558.238 1.037.61 1.409.08.053.159.133.239.186a26.307 26.307 0 013.502 3.376c.61.638 1.14 1.356 1.644 2.073a17.91 17.91 0 011.884 3.775c.61 1.728.929 3.589.929 5.53 0 1.142-.106 2.232-.319 3.322 0 .186-.053.372-.106.532-.265.718-.981 1.25-1.777 1.25-.106 0-.213 0-.292-.027a2.187 2.187 0 01-.69-.266 1.887 1.887 0 01-.716-.798.797.797 0 01-.106-.265 6.215 6.215 0 00-3.37-3.35 6.056 6.056 0 00-2.308-.452h-.16c-1.087.053-1.962.957-1.962 1.994z" fill="#DF6F26"/><path d="M76.91 30.517c-1.705 0-3.197-.266-4.475-.772-1.28-.532-2.265-1.118-2.957-1.836-.693-.692-1.04-1.33-1.04-1.89 0-.266.08-.532.214-.824.133-.267.32-.533.56-.719a.948.948 0 01.692-.293c.32 0 .64.16.932.48.293.319.693.691 1.146 1.144.453.452 1.065.825 1.811 1.144.746.32 1.732.479 2.93.479 1.12 0 2.078-.186 2.904-.532a4.306 4.306 0 001.944-1.624c.453-.718.693-1.65.693-2.767 0-1.145-.24-2.076-.72-2.794a6.148 6.148 0 00-1.89-1.81c-.8-.479-1.626-.905-2.558-1.277-.932-.373-1.865-.745-2.797-1.145a10.577 10.577 0 01-2.584-1.437c-.772-.558-1.385-1.304-1.891-2.208-.48-.905-.72-2.05-.72-3.433 0-1.464.267-2.661.8-3.646.533-.958 1.225-1.73 2.104-2.262a8.61 8.61 0 012.85-1.17c1.013-.214 2.025-.347 3.01-.347.72 0 1.466.053 2.265.16.8.106 1.545.266 2.264.479.72.213 1.305.479 1.758.825.453.346.693.718.693 1.17 0 .214-.053.453-.16.746a2.342 2.342 0 01-.48.772c-.213.24-.479.346-.799.346-.293 0-.666-.133-1.065-.373a9.738 9.738 0 00-1.705-.745c-.72-.24-1.625-.373-2.77-.373a8.73 8.73 0 00-2.69.4c-.853.266-1.52.718-1.999 1.303-.506.613-.746 1.437-.746 2.449 0 .958.24 1.756.72 2.341a5.563 5.563 0 001.864 1.517c.773.4 1.625.772 2.558 1.091.932.346 1.864.719 2.797 1.171.932.426 1.784.985 2.584 1.624.772.638 1.411 1.463 1.89 2.501.48 1.038.72 2.315.72 3.859 0 1.916-.373 3.486-1.145 4.736-.773 1.251-1.785 2.156-3.09 2.768-1.2.48-2.717.772-4.422.772zm19.857-.18c-2.158 0-3.81-.48-4.928-1.437-1.146-.958-1.705-2.475-1.705-4.577V3.779c0-.346.16-.612.533-.825.346-.213.719-.32 1.118-.32.427 0 .8.107 1.146.32.346.213.533.505.533.825v7.664h5.034c.32 0 .56.133.746.399.16.266.266.585.266.905 0 .346-.08.639-.266.905s-.426.372-.746.372h-5.034v10.299c0 1.144.24 1.942.746 2.421.479.48 1.358.692 2.583.692h1.226c.48 0 .852.16 1.092.453.24.292.346.638.346 1.01 0 .373-.133.72-.346 1.012-.24.32-.586.452-1.092.452h-1.252v-.026zm7.405 0c-.453 0-.826-.133-1.145-.373-.32-.24-.453-.532-.453-.825V12.587c0-.346.16-.612.453-.851.293-.213.692-.32 1.145-.32.453 0 .826.107 1.119.32.293.212.453.505.453.851v1.863a6.008 6.008 0 011.198-1.57 6.649 6.649 0 011.785-1.224 5.315 5.315 0 012.264-.48h1.359c.346 0 .639.16.906.453.239.293.373.665.373 1.065a1.6 1.6 0 01-.373 1.037c-.267.293-.56.453-.906.453h-1.359c-.852 0-1.651.24-2.424.718a5.347 5.347 0 00-1.891 2.023c-.506.851-.746 1.916-.746 3.14v9.101c0 .293-.16.559-.506.825a2.449 2.449 0 01-1.252.346zm16.223.319c-1.492 0-2.771-.426-3.81-1.304-1.065-.851-1.571-2.209-1.571-4.018 0-1.464.399-2.608 1.199-3.406.799-.799 1.891-1.358 3.303-1.677 1.385-.293 3.01-.452 4.848-.452h1.918v-.852c0-.798-.16-1.57-.453-2.342-.293-.745-.746-1.383-1.385-1.862-.64-.48-1.492-.745-2.584-.745-.933 0-1.678.106-2.211.266-.56.186-.986.372-1.305.585-.32.213-.586.293-.826.293-.4 0-.719-.186-.933-.586-.213-.372-.319-.745-.319-1.09 0-.426.293-.799.879-1.172.586-.346 1.332-.612 2.184-.825a10.999 10.999 0 012.611-.319c1.864 0 3.356.373 4.475 1.118 1.119.745 1.918 1.703 2.424 2.874a9.831 9.831 0 01.746 3.752v10.219c0 .32-.16.585-.453.851-.32.24-.693.346-1.172.346-.426 0-.799-.133-1.066-.346-.293-.24-.453-.532-.453-.851v-1.597c-.692.798-1.545 1.517-2.503 2.156-1.013.665-2.185.984-3.543.984zm1.039-2.688c.772 0 1.518-.212 2.264-.638a6.633 6.633 0 001.838-1.597c.479-.639.746-1.25.746-1.836V21.82h-1.386c-1.118 0-2.184.08-3.169.213-1.013.133-1.812.426-2.424.852-.613.425-.933 1.144-.933 2.102 0 1.038.293 1.81.879 2.262.56.479 1.306.718 2.185.718zm12.306 11.497c-.426 0-.799-.107-1.065-.293-.293-.213-.453-.586-.453-1.171 0-.373.08-.719.213-1.011.133-.293.4-.426.746-.426.586 0 1.172-.16 1.758-.506.586-.346 1.145-.825 1.705-1.49a10.748 10.748 0 001.412-2.288c.399-.879.692-1.863.879-2.901l-6.633-16.18a.94.94 0 01-.107-.452c0-.293.107-.56.347-.799a3.21 3.21 0 01.852-.585c.32-.133.639-.213.932-.213.213 0 .427.053.64.16a.748.748 0 01.399.532l5.301 13.891 4.768-13.891c.08-.24.213-.4.427-.532.213-.107.399-.16.612-.16.267 0 .56.08.906.213.32.16.613.346.852.585.24.24.347.533.347.852 0 .16-.027.293-.08.4l-6.127 16.232c-.4 1.091-.826 2.209-1.279 3.406-.452 1.171-.985 2.262-1.625 3.247a8.235 8.235 0 01-2.344 2.448c-.879.639-2.024.931-3.383.931zm25.173-8.809c-1.705 0-3.196-.266-4.475-.771-1.279-.533-2.264-1.118-2.957-1.837-.692-.692-1.039-1.33-1.039-1.89 0-.265.08-.531.213-.824.134-.266.32-.532.56-.718a.948.948 0 01.692-.293c.32 0 .64.16.933.479.293.32.692.692 1.145 1.144.453.452 1.066.825 1.812 1.144.745.32 1.731.48 2.93.48 1.119 0 2.077-.187 2.903-.533a4.308 4.308 0 001.945-1.623c.453-.719.692-1.65.692-2.768 0-1.144-.239-2.075-.719-2.794a6.149 6.149 0 00-1.891-1.81 17.636 17.636 0 00-2.557-1.277c-.933-.372-1.865-.745-2.797-1.144a10.575 10.575 0 01-2.584-1.437c-.773-.559-1.385-1.304-1.892-2.209-.479-.905-.719-2.049-.719-3.433 0-1.463.267-2.66.799-3.645.533-.959 1.226-1.73 2.105-2.262a8.61 8.61 0 012.85-1.171c1.012-.213 2.025-.346 3.01-.346.719 0 1.465.053 2.264.16.8.106 1.545.266 2.265.478.719.213 1.305.48 1.758.825.453.346.692.719.692 1.171 0 .213-.053.453-.16.745a2.333 2.333 0 01-.479.772c-.213.24-.479.346-.799.346-.293 0-.666-.133-1.066-.373a9.729 9.729 0 00-1.704-.745c-.72-.24-1.625-.372-2.771-.372-.959 0-1.865.133-2.69.399-.853.266-1.519.718-1.998 1.304-.506.612-.746 1.437-.746 2.448 0 .958.24 1.757.719 2.342a5.564 5.564 0 001.865 1.517c.772.399 1.625.771 2.557 1.09.932.347 1.865.72 2.797 1.172.932.425 1.785.984 2.584 1.623.772.639 1.412 1.464 1.891 2.502.48 1.037.72 2.315.72 3.858 0 1.916-.373 3.486-1.146 4.737-.772 1.25-1.785 2.155-3.09 2.767-1.225.48-2.717.772-4.422.772zm16.782 0c-1.492 0-2.77-.426-3.809-1.304-1.066-.851-1.572-2.209-1.572-4.018 0-1.464.4-2.608 1.199-3.406.799-.799 1.891-1.358 3.303-1.677 1.385-.293 3.01-.452 4.848-.452h1.918v-.852c0-.798-.16-1.57-.453-2.342-.293-.745-.746-1.383-1.385-1.862-.639-.48-1.492-.745-2.584-.745-.932 0-1.678.106-2.211.266-.559.186-.985.372-1.305.585-.32.213-.586.293-.826.293-.399 0-.719-.186-.932-.586-.213-.372-.32-.745-.32-1.09 0-.426.293-.799.879-1.172.586-.346 1.332-.612 2.185-.825a10.99 10.99 0 012.61-.319c1.865 0 3.357.373 4.475 1.118 1.119.745 1.918 1.703 2.424 2.874.48 1.17.746 2.421.746 3.752v10.219c0 .32-.16.585-.453.851-.319.24-.692.346-1.172.346-.426 0-.799-.133-1.065-.346-.293-.24-.453-.532-.453-.851v-1.597c-.693.798-1.545 1.517-2.504 2.156-1.012.665-2.184.984-3.543.984zm1.039-2.688c.772 0 1.518-.212 2.264-.638a6.633 6.633 0 001.838-1.597c.48-.639.746-1.25.746-1.836V21.82h-1.385c-1.119 0-2.184.08-3.17.213-1.012.133-1.811.426-2.424.852-.613.425-.932 1.144-.932 2.102 0 1.038.293 1.81.879 2.262.559.479 1.305.718 2.184.718zm14.305 2.369c-.453 0-.826-.107-1.146-.32-.319-.212-.453-.479-.453-.824V7.478c0-1.384.32-2.635.959-3.779.64-1.118 1.492-2.022 2.584-2.688A6.612 6.612 0 01196.526 0h1.385c.426 0 .773.16 1.012.452a1.597 1.597 0 010 2.05c-.239.292-.586.452-1.012.452h-.826c-.825 0-1.571.186-2.211.585a4.3 4.3 0 00-1.545 1.544 4.247 4.247 0 00-.559 2.129v4.23h5.461c.32 0 .559.134.746.4.186.266.293.585.293.905 0 .32-.107.612-.293.878-.187.266-.426.4-.746.4h-5.461v15.168c0 .345-.186.638-.533.824a2.24 2.24 0 01-1.198.32zm19.126.319c-1.732 0-3.25-.32-4.582-.984-1.332-.64-2.397-1.57-3.143-2.715-.773-1.17-1.146-2.501-1.146-4.045v-4.204c0-1.357.373-2.608 1.092-3.752.72-1.145 1.705-2.05 2.904-2.741 1.199-.692 2.504-1.038 3.942-1.038 1.386 0 2.664.32 3.81.958a7.969 7.969 0 012.797 2.608c.692 1.09 1.065 2.368 1.065 3.778 0 1.065-.186 1.837-.533 2.289a2.1 2.1 0 01-1.305.852 8.554 8.554 0 01-1.678.16h-8.791v1.197c0 1.49.533 2.66 1.599 3.54 1.065.877 2.45 1.303 4.129 1.303.985 0 1.758-.133 2.37-.4a11.425 11.425 0 001.439-.77c.373-.24.692-.373 1.012-.373.293 0 .533.08.746.266.213.186.346.372.453.612.106.24.16.452.16.638 0 .346-.267.745-.773 1.171-.506.453-1.225.825-2.184 1.171-.986.32-2.105.48-3.383.48zm-5.594-11.07h7.405c.719 0 1.199-.08 1.412-.266.213-.16.346-.506.346-1.011 0-.799-.186-1.544-.586-2.21a4.586 4.586 0 00-1.625-1.65c-.692-.425-1.465-.638-2.371-.638-.825 0-1.598.187-2.264.586-.692.399-1.252.905-1.678 1.57a3.946 3.946 0 00-.639 2.182v1.437zM100.15 40.45v7.184h-.933v-6.386h-3.33v6.386h-.932V40.45h5.195zm1.598 3.698c0-.665-.027-1.197-.053-1.676h.852l.053.878h.027c.373-.639.986-1.011 1.838-1.011 1.252 0 2.184 1.064 2.184 2.608 0 1.862-1.118 2.767-2.344 2.767-.692 0-1.278-.293-1.598-.798h-.027v2.794h-.932v-5.562zm.932 1.357c0 .133.027.267.054.373a1.454 1.454 0 001.411 1.091c.986 0 1.572-.798 1.572-1.996 0-1.038-.533-1.916-1.545-1.916-.639 0-1.225.453-1.412 1.171a1.84 1.84 0 00-.053.373v.904h-.027zm5.994-3.033v2.182c0 .825 0 1.33-.053 2.075h.026c.32-.638.48-.984.826-1.596l1.598-2.661h1.093v5.162h-.906v-2.182c0-.851.026-1.277.053-2.102h-.027c-.319.665-.559 1.064-.852 1.596-.479.799-1.065 1.784-1.598 2.688h-1.066v-5.162h.906zm5.94 0v2.182h.879c.16-1.357 1.066-2.289 2.291-2.289 1.332 0 2.264 1.065 2.264 2.661 0 1.677-1.012 2.741-2.317 2.741-1.226 0-2.131-.904-2.238-2.395h-.852v2.262h-.906v-5.162h.879zm4.502 2.554c0-.958-.426-1.969-1.359-1.969-.905 0-1.385.985-1.385 2.023 0 1.01.453 1.969 1.359 1.969.959 0 1.385-1.065 1.385-2.023zm5.594-2.554v.745h-1.598v4.417h-.933v-4.417h-1.598v-.745h4.129zm7.032 0v4.444h.533l-.053 2.342h-.746l-.053-1.65h-3.57l-.053 1.65h-.746l-.053-2.342h.426c.213-.32.4-.692.506-1.065.213-.638.293-1.33.293-2.049v-1.33h3.516zm-2.61 1.57c0 .692-.107 1.33-.266 1.916a5.248 5.248 0 01-.427.958h2.371V43.19h-1.705v.852h.027zm8.124-1.57v5.162h-.932v-4.417h-1.758v1.33c0 1.437-.133 2.422-.799 2.848-.266.213-.533.32-1.012.32l-.107-.746a1.08 1.08 0 00.506-.213c.48-.346.533-1.064.533-2.235v-2.076h3.569v.027zm5.301 5.136h-.932v-2.156h-.692c-.4 0-.666.107-.853.293-.373.32-.533.958-.719 1.437a2.1 2.1 0 01-.213.426h-1.012c.106-.16.213-.373.319-.586.213-.505.346-1.17.799-1.543.16-.133.347-.266.586-.293v-.027c-.666-.08-1.358-.479-1.358-1.277 0-.532.293-.905.692-1.118.427-.24 1.066-.346 1.732-.346.613 0 1.225.054 1.651.107v5.083zm-.932-4.524c-.24-.027-.453-.053-.772-.053-.64 0-1.386.186-1.386.904 0 .666.826.905 1.386.905h.799v-1.756h-.027zm5.008-.612l1.705 2.235h.186v-2.235h.906v2.235h.187l1.704-2.235h1.066l-2.025 2.341c.773.08 1.226.533 1.545 1.358.187.505.347 1.038.56 1.437h-.933c-.159-.32-.319-.745-.479-1.171-.32-.852-.799-1.091-1.465-1.091h-.16v2.288h-.906v-2.288h-.159c-.72 0-1.173.266-1.492 1.117-.16.453-.32.852-.48 1.171h-.905c.213-.425.373-.958.559-1.437.32-.825.773-1.277 1.545-1.384l-2.051-2.341h1.092zm7.539 0v2.182c0 .825 0 1.33-.054 2.075h.027c.32-.638.479-.984.826-1.596l1.598-2.661h1.092v5.162h-.906v-2.182c0-.851.027-1.277.054-2.102h-.027c-.32.665-.559 1.064-.852 1.596-.48.799-1.066 1.784-1.599 2.688h-1.065v-5.162h.906zm5.008.053a13.14 13.14 0 011.651-.107c.853 0 2.291.133 2.291 1.278 0 .638-.479 1.038-1.066 1.17v.027c.746.107 1.306.532 1.306 1.278 0 1.357-1.705 1.517-2.717 1.517-.586 0-1.172-.054-1.439-.054v-5.11h-.026zm.905 4.47c.267.027.453.054.746.054.639 0 1.572-.16 1.572-.905s-.746-.905-1.652-.905h-.692v1.757h.026zm0-2.368h.693c.692 0 1.412-.213 1.412-.798 0-.506-.453-.745-1.386-.745-.319 0-.506.026-.719.053v1.49zm9.11.373c0 1.916-1.331 2.74-2.557 2.74-1.385 0-2.477-1.01-2.477-2.66 0-1.73 1.119-2.741 2.557-2.741 1.492 0 2.477 1.09 2.477 2.66zm-4.075.053c0 1.118.639 1.97 1.571 1.97.906 0 1.572-.852 1.572-1.997 0-.878-.426-1.969-1.545-1.969s-1.598 1.011-1.598 1.996zm8.764-2.581v.745h-1.599v4.417h-.932v-4.417h-1.598v-.745h4.129zm1.784 0v2.075h2.451v-2.075h.932v5.162h-.932v-2.342h-2.451v2.342h-.932v-5.162h.932zm5.834 0v1.756c.213-.053.506-.053.853-.053 1.118 0 2.237.452 2.237 1.73 0 .532-.213.904-.533 1.197-.559.479-1.385.586-2.077.586-.533 0-1.013-.027-1.386-.08v-5.136h.906zm0 4.497c.187.027.373.053.639.053.72 0 1.492-.292 1.492-1.09 0-.826-.746-1.092-1.438-1.092-.267 0-.506.027-.693.053v2.076zm4.635-4.497v5.162h-.932v-5.162h.932zm1.971 0l.746 1.117c.187.293.347.56.533.852h.027c.16-.32.346-.586.506-.852l.719-1.09h1.012l-1.758 2.5 1.812 2.662h-1.066l-.746-1.171c-.213-.293-.373-.586-.559-.905h-.027c-.16.32-.346.586-.533.905l-.745 1.17h-1.039l1.838-2.634-1.758-2.528h1.038v-.026z" fill="#000"/></svg>