<svg width="94" height="86" fill="none" xmlns="http://www.w3.org/2000/svg"><path d="M36.298 34.875a3.316 3.316 0 01-2.635 3.25c-.104-.015-.21-.015-.329-.015-.225 0-.434.015-.644.06a3.29 3.29 0 00-2.5 2.313c-.03.423-.06.847-.119 1.255a18.18 18.18 0 01-3.203 8.284c-.015.015-.03.045-.045.06-.15.197-.3.408-.45.605a18.095 18.095 0 01-1.586 1.799 17.95 17.95 0 01-6.57 4.157v.136c0 7.65 2.918 14.603 7.708 19.788l.015.015a28.468 28.468 0 003.577 3.28c.15.122.3.227.45.333.03.03.06.046.089.076a3.313 3.313 0 011.048 2.418c0 1.83-1.467 3.311-3.278 3.311a3.23 3.23 0 01-1.377-.302c-.03-.015-.075-.03-.105-.06C13.89 79.5 4.55 67.95 1.272 54.042A47.867 47.867 0 010 43.008a47.87 47.87 0 014.37-20.03C8.907 13.137 16.69 5.14 26.33.363c.045-.03.09-.046.15-.076A3.312 3.312 0 0127.826 0c1.81 0 3.278 1.481 3.278 3.31 0 .953-.404 1.815-1.048 2.42-.135.105-.27.21-.404.317a46.915 46.915 0 00-6.002 5.85 27.385 27.385 0 00-2.814 3.613 28.552 28.552 0 00-3.218 6.545 29.259 29.259 0 00-1.587 9.554c0 1.966.195 3.886.554 5.73a3.274 3.274 0 003.263 3.069c.18 0 .344-.016.509-.046a3.56 3.56 0 001.197-.438 3.223 3.223 0 001.243-1.406c.074-.151.12-.303.18-.454a10.642 10.642 0 015.792-5.805 10.57 10.57 0 013.981-.786h.27c1.826.015 3.278 1.588 3.278 3.402z" fill="#DF6F26"/><path d="M28.889 18.458c-.554 1.799-5.763 4.49-6.152 4.67-.48.228-.943.485-1.422.666-.749.333-1.961 1.013-2.665 1.255.075-.378.225-3.598 3.309-5.624a44.84 44.84 0 014.625-2.706c.27-.136.538-.287.868-.287.075 0 .164 0 .24.015.538.09.972.469 1.152.968.12.363.075.937.045 1.043zm-2.365 6.545c0 .242-.06.469-.165.666-.24.408-1.018 1.058-1.287 1.284-1.557 1.316-5.014 2.63-7.14 3.205-.09-.332.165-3.038 1.572-4.051 1.496-1.073 4.415-2.343 4.88-2.449.03 0 .478-.136.673-.136h.12c.748.06 1.347.695 1.347 1.481zm5.283-14.678c0 .06 0 .136-.015.196-.06.408-.314.71-.583.983-.375.393-2.32 2.207-4.416 3.477-.554.332-4.266 2.6-5.553 2.978.075-.59 2.994-5.578 4.67-6.727 1.152-.786 3.832-2.464 4.43-2.389.075.015.165 0 .24.015a1.502 1.502 0 011.227 1.467zm33.304 8.133c.554 1.799 5.763 4.49 6.152 4.67.48.228.943.485 1.422.666.749.333 1.961 1.013 2.665 1.255-.075-.378-.225-3.598-3.308-5.624a44.83 44.83 0 00-4.626-2.706c-.269-.136-.538-.287-.868-.287-.075 0-.164 0-.24.015a1.49 1.49 0 00-1.152.968c-.12.363-.075.937-.045 1.043zm2.365 6.545c0 .242.06.469.165.666.24.408 1.018 1.058 1.287 1.284 1.557 1.316 5.015 2.63 7.14 3.205.09-.332-.165-3.038-1.572-4.051-1.496-1.073-4.415-2.343-4.88-2.449-.03 0-.478-.136-.673-.136h-.12a1.478 1.478 0 00-1.347 1.481zm-5.283-14.678c0 .06 0 .136.015.196.06.408.314.71.584.983.374.393 2.32 2.207 4.415 3.477.554.332 4.266 2.6 5.553 2.978-.075-.59-2.993-5.578-4.67-6.727-1.152-.786-3.832-2.464-4.43-2.389-.075.015-.165 0-.24.015a1.489 1.489 0 00-1.227 1.467z" fill="#DF6F26"/><path d="M57.702 34.875a3.316 3.316 0 002.635 3.25c.104-.015.21-.015.329-.015.225 0 .434.015.644.06a3.29 3.29 0 012.5 2.313c.03.423.06.847.119 1.255a18.18 18.18 0 003.203 8.284c.015.015.03.045.045.06.15.197.3.408.45.605a17.95 17.95 0 008.158 5.956l-.001.136c0 7.65-2.919 14.603-7.709 19.788l-.015.015a28.468 28.468 0 01-3.577 3.28c-.15.122-.3.227-.45.333-.03.03-.06.046-.089.076a3.313 3.313 0 00-1.048 2.418c0 1.83 1.467 3.311 3.278 3.311a3.23 3.23 0 001.377-.302c.03-.015.075-.03.105-.06C80.11 79.5 89.45 67.95 92.728 54.042A47.867 47.867 0 0094 43.008a47.87 47.87 0 00-4.37-20.03C85.093 13.137 77.31 5.14 67.67.363c-.045-.03-.09-.046-.15-.076A3.311 3.311 0 0066.174 0c-1.81 0-3.278 1.481-3.278 3.31 0 .953.404 1.815 1.048 2.42.135.105.27.21.404.317a46.915 46.915 0 016.002 5.85 27.385 27.385 0 012.814 3.613 28.552 28.552 0 013.218 6.545 29.259 29.259 0 011.587 9.554 29.98 29.98 0 01-.554 5.73 3.274 3.274 0 01-3.263 3.069c-.18 0-.344-.016-.509-.046a3.56 3.56 0 01-1.197-.438 3.223 3.223 0 01-1.242-1.406c-.075-.151-.12-.303-.18-.454a10.642 10.642 0 00-5.793-5.805 10.57 10.57 0 00-3.981-.786h-.27c-1.826.015-3.278 1.588-3.278 3.402z" fill="#DF6F26"/></svg>