<svg width="25" height="26" fill="none" xmlns="http://www.w3.org/2000/svg"><path d="M24.946 17.776c-.635 2.284-3.233 2.691-5.484 2.89a1.32 1.32 0 01-.635-.094c-1.09-.5-1.425-1.48-1.58-2.528-.132-.897.18-1.677 1.03-2.073a13.875 13.875 0 012.706-.897c.563-.128 1.173-.07 1.76-.023.946.07 1.616.547 1.976 1.41.071.174.155.349.227.512.072.21.072.536 0 .803zm-9.363-2.726c-.156 1.037-.252 2.062-.48 3.076-.358 1.62-.06 3.238-.095 4.857-.036 1.387-1.054 2.575-2.419 2.901-2.143.513-4.418-.722-5.113-2.784a9.894 9.894 0 01-.323-1.165c-.251-1.235-.994-1.934-2.287-2.132-1.724-.256-3.005-1.211-3.951-2.574-.324-.466-.54-1.025-.683-1.561-.275-1.002.06-1.887.982-2.365.85-.43 1.808-.792 2.754-.943 1.58-.245 2.85-.897 3.915-2.027 1.174-1.247 2.683-1.573 4.323-1.223 1.652.349 2.622 1.444 2.97 3.005.215.955.275 1.945.407 2.935zm4.454-9.54c1.976 0 3.125 1.724 2.347 3.145a7.441 7.441 0 01-3.509 3.274c-.706.326-1.424.29-1.987-.21a7.815 7.815 0 01-1.39-1.666c-.334-.524-.298-1.153.037-1.689 1.125-1.712 2.802-2.54 4.502-2.854zM13.223 0c1.557 0 2.431.955 2.216 2.551-.18 1.351-.647 2.633-1.521 3.74-.695.885-1.401 1.118-2.479.78-.479-.151-.958-.361-1.365-.652-.79-.548-1.101-1.293-.862-2.26.383-1.526 1.233-2.773 2.49-3.716C12.099.15 12.84.023 13.224 0zM5.548 8.003c0 2.563-2.299 3.856-4.167 2.772-.383-.22-.73-.664-.898-1.083-.658-1.526-.61-3.099-.06-4.648.348-.967 1.138-1.398 2.132-1.456.91-.058 1.592.384 2 1.165.622 1.165.981 2.4.993 3.25z" fill="#DF6F26"/></svg>