<svg width="50" height="50" viewBox="0 0 50 50" fill="none" xmlns="http://www.w3.org/2000/svg">
<path d="M41.2816 29.1957L41.2767 29.1897L41.2719 29.1835C40.5882 28.3039 40.1433 27.3501 40.0473 26.319C39.9507 25.2811 40.2164 24.2578 40.7955 23.2616L41.6693 23.7527L40.7947 23.2631C42.144 20.9332 42.2778 18.4756 41.4458 15.8914L41.4456 15.8907C40.8901 14.1608 40.0408 13.2711 39.1538 12.944C38.2701 12.6181 37.052 12.7417 35.5072 13.6893L35.5072 13.6893L35.5031 13.6918C34.6805 14.191 33.9409 14.8049 33.1382 15.4713C32.9249 15.6484 32.7072 15.8291 32.4823 16.0124C30.6223 17.5511 28.4513 18.1338 26.2266 18.2709C23.8679 18.4187 22.1404 19.443 20.9539 21.3987L20.9539 21.3987L20.9503 21.4045C20.26 22.5249 19.9883 23.5824 20.0493 24.581C20.1103 25.5793 20.5089 26.6021 21.2999 27.6433C22.3777 28.9812 23.4518 30.2778 24.6594 31.2412C25.4742 31.8912 26.3815 32.406 27.3554 32.9241C27.5196 33.0115 27.6867 33.0994 27.8558 33.1884C28.6635 33.6135 29.5156 34.0619 30.3088 34.5826C31.7264 35.4906 33.1517 36.5092 34.3973 37.7341C35.741 39.0117 36.9641 39.6842 38.0534 39.8777C39.1033 40.0642 40.143 39.8268 41.2154 39.0435C43.601 37.2645 44.3016 33.8903 42.7604 31.276C42.3393 30.5671 41.8396 29.8909 41.2816 29.1957Z" stroke="#DF6F26" stroke-width="2"/>
<path d="M14.5736 19.6196L14.5736 19.6196L14.586 19.6194C15.3331 19.6084 15.8169 19.4059 16.1753 19.0727C16.5591 18.7159 16.9033 18.1122 17.1612 17.1147C17.6723 15.138 17.1814 14.0136 16.2322 13.5059L16.2276 13.5034C13.7578 12.1658 11.1409 11.9274 8.42203 12.6837C7.38133 12.9842 6.79887 13.7616 6.59307 14.9837C6.49647 15.5574 6.56546 16.0069 6.73475 16.3769C6.90425 16.7475 7.20424 17.1029 7.67343 17.4381C9.87605 18.8056 12.1064 19.6857 14.5736 19.6196Z" stroke="#DF6F26" stroke-width="2"/>
<path d="M26.7071 3.2257L26.6977 3.22198L26.6885 3.21807C25.9638 2.91294 25.3662 2.86184 24.869 2.96471C24.3724 3.06744 23.8827 3.34296 23.406 3.84882L23.406 3.84887L23.3972 3.85805C22.9018 4.37044 22.6959 4.85457 22.6513 5.31708C22.6052 5.79548 22.7224 6.35083 23.0491 7.00288C24.1375 9.17311 25.482 10.9881 27.4942 12.1674C27.9366 12.424 28.3789 12.5719 28.6709 12.5662C30.1623 12.488 31.2128 11.5579 32.0781 10.1315L32.0794 10.1294C32.3869 9.6254 32.4578 9.15924 32.3867 8.71024C32.3122 8.23954 32.0708 7.72925 31.6572 7.19426L31.6468 7.18081L31.6369 7.16702C30.9786 6.25203 30.2632 5.37583 29.5518 4.70603C28.8631 4.10172 27.8377 3.67549 26.7071 3.2257Z" stroke="#DF6F26" stroke-width="2"/>
<path d="M15.142 26.0112L15.1331 26.0101L15.1242 26.0089C12.0342 25.5887 9.35471 26.5915 7.1585 28.7605L7.14862 28.7702L7.13847 28.7797C6.69758 29.1917 6.49007 29.8399 6.60752 30.597C6.72033 31.3241 7.13002 32.082 7.81782 32.6379C7.85847 32.6574 7.89434 32.6757 7.92058 32.6891C7.92422 32.691 7.92767 32.6927 7.93093 32.6944C7.94167 32.6999 7.95229 32.7053 7.96282 32.7107C8.03197 32.7459 8.09734 32.7793 8.16962 32.8136C8.33684 32.893 8.48072 32.9475 8.5961 32.9709C11.1775 33.4136 13.6333 33.2105 15.9391 32.1487C16.5963 31.8393 16.9477 31.4779 17.1409 31.0644C17.3453 30.6272 17.4308 30.0078 17.3125 29.0899C17.0348 27.0773 16.123 26.127 15.142 26.0112Z" stroke="#DF6F26" stroke-width="2"/>
<path d="M20.2332 46.1226L20.2349 46.1222C22.6199 45.6371 24.7262 44.5802 26.4398 42.9164L26.4397 42.9164L26.4445 42.9119C27.0098 42.37 27.2271 41.8703 27.2515 41.3746C27.2774 40.8475 27.0923 40.1767 26.5589 39.3037C25.9737 38.3508 25.4125 37.8196 24.8804 37.5575C24.3765 37.3092 23.7928 37.2499 23.0246 37.4567L23.0148 37.4594L23.005 37.4618C21.5011 37.8348 19.7627 38.9941 18.1541 40.8992C17.2277 42.1179 16.6687 43.0135 17.1338 44.2754C17.6826 45.7212 18.8566 46.405 20.2332 46.1226Z" stroke="#DF6F26" stroke-width="2"/>
</svg>
