<svg width="50" height="50" viewBox="0 0 50 50" fill="none" xmlns="http://www.w3.org/2000/svg">
<path d="M8.71845 29.1957L8.72333 29.1897L8.72811 29.1835C9.41182 28.3039 9.85673 27.3501 9.9527 26.319C10.0493 25.2811 9.78361 24.2578 9.20446 23.2616L8.33072 23.7527L9.20529 23.2631C7.85602 20.9332 7.7222 18.4756 8.55417 15.8914L8.55438 15.8907C9.10995 14.1608 9.95922 13.2711 10.8462 12.944C11.7299 12.6181 12.948 12.7417 14.4928 13.6893L14.4928 13.6893L14.4969 13.6918C15.3195 14.191 16.0591 14.8049 16.8618 15.4713C17.0751 15.6484 17.2928 15.8291 17.5177 16.0124C19.3777 17.5511 21.5487 18.1338 23.7734 18.2709C26.1321 18.4187 27.8596 19.443 29.0461 21.3987L29.0461 21.3987L29.0497 21.4045C29.74 22.5249 30.0117 23.5824 29.9507 24.581C29.8897 25.5793 29.4911 26.6021 28.7001 27.6433C27.6223 28.9812 26.5482 30.2778 25.3406 31.2412C24.5258 31.8912 23.6185 32.406 22.6446 32.9241C22.4804 33.0115 22.3133 33.0994 22.1442 33.1884C21.3365 33.6135 20.4844 34.0619 19.6912 34.5826C18.2736 35.4906 16.8483 36.5092 15.6027 37.7341C14.259 39.0117 13.0359 39.6842 11.9466 39.8777C10.8967 40.0642 9.857 39.8268 8.78463 39.0435C6.39903 37.2645 5.69838 33.8903 7.23965 31.276C7.66069 30.5671 8.16036 29.8909 8.71845 29.1957Z" stroke="#DF6F26" stroke-width="2"/>
<path d="M35.4264 19.6196L35.4264 19.6196L35.414 19.6194C34.6669 19.6084 34.1831 19.4059 33.8247 19.0727C33.4409 18.7159 33.0967 18.1122 32.8388 17.1147C32.3277 15.138 32.8186 14.0136 33.7678 13.5059L33.7724 13.5034C36.2422 12.1658 38.8591 11.9274 41.578 12.6837C42.6187 12.9842 43.2011 13.7616 43.4069 14.9837C43.5035 15.5574 43.4345 16.0069 43.2653 16.3769C43.0957 16.7475 42.7958 17.1029 42.3266 17.4381C40.1239 18.8056 37.8936 19.6857 35.4264 19.6196Z" stroke="#DF6F26" stroke-width="2"/>
<path d="M23.2929 3.2257L23.3023 3.22198L23.3115 3.21807C24.0362 2.91294 24.6338 2.86184 25.131 2.96471C25.6276 3.06744 26.1173 3.34296 26.594 3.84882L26.594 3.84887L26.6028 3.85805C27.0982 4.37044 27.3041 4.85457 27.3487 5.31708C27.3948 5.79548 27.2776 6.35083 26.9509 7.00288C25.8625 9.17311 24.518 10.9881 22.5058 12.1674C22.0634 12.424 21.6211 12.5719 21.3291 12.5662C19.8377 12.488 18.7872 11.5579 17.9219 10.1315L17.9206 10.1294C17.6131 9.6254 17.5422 9.15924 17.6133 8.71024C17.6878 8.23954 17.9292 7.72925 18.3428 7.19426L18.3532 7.18081L18.3631 7.16702C19.0214 6.25203 19.7368 5.37583 20.4482 4.70603C21.1369 4.10172 22.1623 3.67549 23.2929 3.2257Z" stroke="#DF6F26" stroke-width="2"/>
<path d="M34.858 26.0112L34.8669 26.0101L34.8758 26.0089C37.9658 25.5887 40.6453 26.5915 42.8415 28.7605L42.8514 28.7702L42.8615 28.7797C43.3024 29.1917 43.5099 29.8399 43.3925 30.597C43.2797 31.3241 42.87 32.082 42.1822 32.6379C42.1415 32.6574 42.1057 32.6757 42.0794 32.6891C42.0758 32.691 42.0723 32.6927 42.0691 32.6944C42.0583 32.6999 42.0477 32.7053 42.0372 32.7107C41.968 32.7459 41.9027 32.7793 41.8304 32.8136C41.6632 32.893 41.5193 32.9475 41.4039 32.9709C38.8225 33.4136 36.3667 33.2105 34.0609 32.1487C33.4037 31.8393 33.0523 31.4779 32.8591 31.0644C32.6547 30.6272 32.5692 30.0078 32.6875 29.0899C32.9652 27.0773 33.877 26.127 34.858 26.0112Z" stroke="#DF6F26" stroke-width="2"/>
<path d="M29.7668 46.1226L29.7651 46.1222C27.3801 45.6371 25.2738 44.5802 23.5602 42.9164L23.5603 42.9164L23.5555 42.9119C22.9902 42.37 22.7729 41.8703 22.7485 41.3746C22.7226 40.8475 22.9077 40.1767 23.4411 39.3037C24.0263 38.3508 24.5875 37.8196 25.1196 37.5575C25.6235 37.3092 26.2072 37.2499 26.9754 37.4567L26.9852 37.4594L26.995 37.4618C28.4989 37.8348 30.2373 38.9941 31.8459 40.8992C32.7723 42.1179 33.3313 43.0135 32.8662 44.2754C32.3174 45.7212 31.1434 46.405 29.7668 46.1226Z" stroke="#DF6F26" stroke-width="2"/>
</svg>
