<svg width="50" height="50" fill="none" xmlns="http://www.w3.org/2000/svg"><path d="M41.282 29.196l-.005-.006-.005-.007c-.684-.88-1.129-1.833-1.225-2.864-.096-1.038.17-2.061.748-3.057l.874.49-.874-.489c1.349-2.33 1.483-4.787.65-7.372h0c-.555-1.73-1.404-2.62-2.291-2.947-.884-.326-2.102-.202-3.647.745h0l-.004.003c-.822.499-1.562 1.113-2.365 1.78-.213.176-.43.357-.656.54-1.86 1.54-4.03 2.122-6.255 2.259-2.36.148-4.087 1.172-5.273 3.128h0l-.004.005c-.69 1.12-.962 2.178-.9 3.177.06.998.459 2.021 1.25 3.062 1.078 1.338 2.152 2.635 3.36 3.598.814.65 1.721 1.165 2.695 1.683l.5.264c.808.425 1.66.874 2.454 1.395 1.417.908 2.843 1.926 4.088 3.151 1.344 1.278 2.567 1.95 3.656 2.144 1.05.186 2.09-.051 3.162-.834 2.386-1.78 3.087-5.154 1.545-7.768-.42-.709-.92-1.385-1.478-2.08zM14.574 19.62h.012c.747-.012 1.23-.214 1.59-.547.383-.357.727-.96.985-1.958.511-1.977.02-3.101-.929-3.61l-.004-.002c-2.47-1.337-5.087-1.576-7.806-.82-1.04.301-1.623 1.079-1.829 2.3-.097.574-.028 1.024.142 1.394.17.37.47.726.938 1.061 2.203 1.368 4.433 2.248 6.9 2.182zM26.707 3.226l-.01-.004-.008-.004c-.725-.305-1.323-.356-1.82-.253-.497.102-.986.378-1.463.884h0l-.009.009c-.495.512-.701.997-.746 1.46-.046.477.071 1.033.398 1.685 1.088 2.17 2.433 3.985 4.445 5.164.443.257.885.405 1.177.4 1.491-.079 2.542-1.01 3.407-2.435l.001-.003c.308-.504.379-.97.308-1.419-.075-.47-.316-.98-.73-1.516l-.01-.013-.01-.014c-.658-.915-1.374-1.791-2.085-2.461-.689-.604-1.714-1.03-2.845-1.48zM15.142 26.011h-.009l-.009-.002c-3.09-.42-5.77.582-7.966 2.752l-.01.01-.01.009c-.44.412-.648 1.06-.53 1.817.112.727.522 1.485 1.21 2.04l.103.052.01.005.032.017c.069.035.134.068.207.103.167.079.31.133.426.157 2.582.443 5.037.24 7.343-.822.657-.31 1.009-.671 1.202-1.085.204-.437.29-1.056.172-1.974-.278-2.013-1.19-2.963-2.171-3.079zm5.091 20.112h.002c2.385-.486 4.491-1.543 6.205-3.207h0l.005-.004c.565-.542.782-1.042.806-1.537.026-.528-.159-1.198-.692-2.071-.585-.953-1.146-1.484-1.679-1.747-.503-.248-1.087-.307-1.855-.1l-.01.002-.01.003c-1.504.373-3.242 1.532-4.85 3.437-.927 1.219-1.486 2.114-1.021 3.376.549 1.446 1.723 2.13 3.1 1.848z" stroke="#DF6F26" stroke-width="2"/></svg>