<svg width="50" height="50" viewBox="0 0 50 50" fill="none" xmlns="http://www.w3.org/2000/svg">
<path d="M24.0238 32.0133C25.8072 33.436 27.9325 34.2161 29.7529 35.4121C31.1488 36.306 32.5127 37.2842 33.6902 38.4433C36.5419 41.1578 39.2795 41.6939 41.8177 39.8372C44.6194 37.7512 45.4265 33.8177 43.6311 30.7741C43.1766 30.0087 42.6449 29.2916 42.0725 28.5786C40.8738 27.0363 40.6804 25.4539 41.6694 23.7528C43.178 21.1479 43.3105 18.3973 42.4063 15.5886C41.1887 11.7976 38.376 10.7621 34.9766 12.8473C33.8556 13.5276 32.8606 14.4183 31.8387 15.2509C30.1944 16.6123 28.2543 17.1518 26.1663 17.2804C23.485 17.4483 21.4518 18.646 20.0895 20.8916C18.5314 23.4204 18.7214 25.9155 20.5013 28.251C21.5741 29.5829 22.7145 30.9688 24.0238 32.0133Z" fill="#DF6F26"/>
<path d="M7.10785 18.2617C9.40737 19.6934 11.8444 20.6855 14.5978 20.6118C16.4907 20.5839 17.5723 19.5426 18.1374 17.3568C18.7026 15.1711 18.2471 13.4528 16.7151 12.6334C13.9991 11.1624 11.1065 10.9054 8.14654 11.7299C6.62796 12.1663 5.84926 13.3394 5.59919 14.8244C5.34913 16.3094 5.92457 17.4276 7.10785 18.2617Z" fill="#DF6F26"/>
<path d="M30.2368 3.97598C29.3928 3.22942 28.1856 2.74238 27.0869 2.30527C25.3372 1.56856 23.8507 1.92062 22.6686 3.17479C21.4095 4.47726 21.3815 5.91968 22.1456 7.44475C23.2782 9.70331 24.7334 11.7064 26.979 13.0219C27.4851 13.3158 28.1316 13.5753 28.7068 13.558C30.695 13.4597 31.9994 12.1933 32.9425 10.6387C33.799 9.23472 33.4194 7.83325 32.4595 6.59142C31.7793 5.64593 31.0175 4.70863 30.2368 3.97598Z" fill="#DF6F26"/>
<path d="M7.28644 33.4914C7.45827 33.5553 7.92356 33.8532 8.40774 33.9466C11.1591 34.4205 13.8361 34.2124 16.3672 33.0458C18.0138 32.2722 18.5755 30.9992 18.3114 28.9575C18.0117 26.7775 16.9352 25.223 15.265 25.0258C11.8344 24.5593 8.84608 25.6907 6.44634 28.0607C4.9877 29.4238 5.39899 32.0589 7.28644 33.4914Z" fill="#DF6F26"/>
<path d="M17.3637 40.2857C16.4445 41.4932 15.5159 42.803 16.1883 44.6212C16.8834 46.4573 18.5006 47.4912 20.4356 47.0941C22.996 46.5734 25.2825 45.4313 27.1458 43.6221C28.5637 42.2631 28.6012 40.7184 27.422 38.7889C26.1437 36.7072 24.6838 35.9819 22.7619 36.4994C20.9761 36.9423 19.0603 38.2702 17.3637 40.2857Z" fill="#DF6F26"/>
</svg>
