<svg width="50" height="50" viewBox="0 0 50 50" fill="none" xmlns="http://www.w3.org/2000/svg">
<path d="M25.9762 32.0133C24.1928 33.436 22.0675 34.2161 20.2471 35.4121C18.8512 36.3059 17.4873 37.2842 16.3098 38.4433C13.4581 41.1578 10.7205 41.6939 8.1823 39.8372C5.38061 37.7512 4.5735 33.8177 6.36891 30.7741C6.8234 30.0087 7.35505 29.2916 7.92748 28.5786C9.12623 27.0363 9.31957 25.4539 8.3306 23.7528C6.82204 21.1479 6.68952 18.3973 7.59374 15.5886C8.81128 11.7976 11.624 10.7621 15.0234 12.8473C16.1444 13.5276 17.1394 14.4183 18.1613 15.2509C19.8056 16.6123 21.7457 17.1518 23.8337 17.2804C26.515 17.4483 28.5482 18.646 29.9105 20.8916C31.4686 23.4204 31.2786 25.9155 29.4987 28.251C28.4259 29.5829 27.2855 30.9688 25.9762 32.0133Z" fill="#DF6F26"/>
<path d="M42.8921 18.2617C40.5926 19.6934 38.1556 20.6855 35.4022 20.6118C33.5093 20.5839 32.4277 19.5426 31.8626 17.3568C31.2974 15.1711 31.7529 13.4528 33.2849 12.6334C36.0009 11.1624 38.8935 10.9054 41.8535 11.7299C43.372 12.1663 44.1507 13.3394 44.4008 14.8244C44.6509 16.3094 44.0754 17.4276 42.8921 18.2617Z" fill="#DF6F26"/>
<path d="M19.7632 3.97598C20.6072 3.22942 21.8144 2.74238 22.9131 2.30527C24.6628 1.56856 26.1493 1.92062 27.3314 3.17479C28.5905 4.47726 28.6185 5.91968 27.8544 7.44475C26.7218 9.70331 25.2666 11.7064 23.021 13.0219C22.5149 13.3158 21.8684 13.5753 21.2932 13.558C19.305 13.4597 18.0006 12.1933 17.0575 10.6387C16.201 9.23472 16.5806 7.83325 17.5405 6.59142C18.2207 5.64593 18.9825 4.70863 19.7632 3.97598Z" fill="#DF6F26"/>
<path d="M42.7136 33.4914C42.5417 33.5553 42.0764 33.8532 41.5923 33.9466C38.8409 34.4205 36.1639 34.2124 33.6328 33.0458C31.9862 32.2722 31.4245 30.9992 31.6886 28.9575C31.9883 26.7775 33.0648 25.223 34.735 25.0258C38.1656 24.5593 41.1539 25.6907 43.5537 28.0607C45.0123 29.4238 44.601 32.0589 42.7136 33.4914Z" fill="#DF6F26"/>
<path d="M32.6363 40.2857C33.5555 41.4932 34.4841 42.803 33.8117 44.6212C33.1166 46.4573 31.4994 47.4912 29.5644 47.0941C27.004 46.5734 24.7175 45.4313 22.8542 43.6221C21.4363 42.2631 21.3988 40.7184 22.578 38.7889C23.8563 36.7072 25.3162 35.9819 27.2381 36.4994C29.0239 36.9423 30.9397 38.2702 32.6363 40.2857Z" fill="#DF6F26"/>
</svg>
