<svg width="40" height="40" viewBox="0 0 40 40" fill="none" xmlns="http://www.w3.org/2000/svg">
<path fill-rule="evenodd" clip-rule="evenodd" d="M30.2807 31.695C30.6712 32.0855 31.3044 32.0855 31.6949 31.695C32.0854 31.3045 32.0854 30.6713 31.6949 30.2808L20.9009 19.4868L31.6948 8.69289C32.0853 8.30236 32.0853 7.6692 31.6948 7.27867C31.3043 6.88815 30.6711 6.88815 30.2806 7.27867L19.4867 18.0726L8.6928 7.27867C8.30228 6.88815 7.66911 6.88815 7.27859 7.27867C6.88806 7.6692 6.88806 8.30236 7.27858 8.69288L18.0725 19.4868L7.27849 30.2808C6.88796 30.6713 6.88796 31.3045 7.27849 31.695C7.66901 32.0855 8.30218 32.0855 8.6927 31.695L19.4867 20.901L30.2807 31.695Z" fill="#FCFCFC"/>
</svg>
