<svg width="94" height="86" viewBox="0 0 94 86" fill="none" xmlns="http://www.w3.org/2000/svg">
<path d="M36.2977 34.8747C36.2977 36.4771 35.1602 37.8225 33.6634 38.1248C33.5586 38.1097 33.4538 38.1097 33.3341 38.1097C33.1095 38.1097 32.9 38.1248 32.6904 38.1702C31.493 38.412 30.52 39.319 30.1907 40.483C30.1608 40.9063 30.1309 41.3296 30.071 41.7377C29.6968 44.8065 28.5592 47.6182 26.8678 50.0218C26.8528 50.0369 26.8379 50.0671 26.8229 50.0823C26.6732 50.2788 26.5236 50.4904 26.3739 50.6869C25.8799 51.3218 25.356 51.9265 24.7872 52.4858C22.9462 54.315 20.7009 55.7511 18.2162 56.643C18.2162 56.6883 18.2162 56.7337 18.2162 56.779C18.2162 64.4282 21.135 71.382 25.9248 76.5671C25.9248 76.5671 25.9248 76.567 25.9398 76.5822C27.0325 77.7764 28.2299 78.8648 29.5172 79.8625C29.6669 79.9835 29.8165 80.0893 29.9662 80.1951C29.9962 80.2253 30.0261 80.2405 30.056 80.2707C30.6997 80.8754 31.1038 81.737 31.1038 82.6894C31.1038 84.5185 29.6369 86 27.8258 86C27.3318 86 26.8678 85.8942 26.4487 85.6977C26.4188 85.6825 26.3739 85.6674 26.3439 85.6372C13.8904 79.4997 4.55032 67.9504 1.27229 54.0429C0.434076 50.5055 0 46.8019 0 43.0076C0 35.8573 1.57165 29.0698 4.3707 22.9777C8.90604 13.1366 16.6895 5.13974 26.329 0.362806C26.3739 0.332572 26.4188 0.317455 26.4786 0.287221C26.8828 0.105818 27.3468 0 27.8258 0C29.6369 0 31.1038 1.48145 31.1038 3.3106C31.1038 4.26296 30.6997 5.12463 30.056 5.7293C29.9213 5.83512 29.7866 5.94094 29.6519 6.04676C27.4815 7.81543 25.4758 9.76551 23.6497 11.897C22.6169 13.0156 21.6739 14.225 20.8357 15.5099C19.5035 17.5205 18.4108 19.7275 17.6175 22.0555C16.5847 25.0487 16.0309 28.2686 16.0309 31.6094C16.0309 33.5746 16.2255 35.4945 16.5847 37.3387C16.5997 37.6562 16.6745 37.9736 16.7793 38.2609C17.2433 39.5156 18.4408 40.4074 19.8478 40.4074C20.0274 40.4074 20.192 40.3923 20.3567 40.3621C20.7908 40.2865 21.1949 40.1353 21.5541 39.9237C22.093 39.5911 22.5271 39.1074 22.7965 38.5178C22.8713 38.3667 22.9162 38.2155 22.9761 38.0643C24.0538 35.434 26.1493 33.3327 28.7688 32.2594C29.9962 31.7606 31.3433 31.4734 32.7503 31.4734C32.7802 31.4734 32.9149 31.4734 33.0197 31.4734C34.8458 31.4885 36.2977 33.0606 36.2977 34.8747Z" fill="#DF6F26"/>
<path d="M28.8887 18.4578C28.3349 20.2567 23.126 22.9475 22.7368 23.1289C22.2578 23.3557 21.7938 23.6127 21.3148 23.7941C20.5664 24.1266 19.354 24.8069 18.6505 25.0488C18.7254 24.6708 18.875 21.4509 21.9585 19.4253C23.4703 18.4276 24.9072 17.5659 26.5836 16.7194C26.8531 16.5833 27.1225 16.4321 27.4518 16.4321C27.5266 16.4321 27.6164 16.4321 27.6913 16.4472C28.2301 16.5379 28.6642 16.9159 28.8438 17.4147C28.9636 17.7775 28.9187 18.352 28.8887 18.4578Z" fill="#DF6F26"/>
<path d="M26.5237 25.0034C26.5237 25.2453 26.4638 25.472 26.3591 25.6686C26.1196 26.0767 25.3412 26.7268 25.0718 26.9535C23.5151 28.2687 20.0575 29.5838 17.932 30.1583C17.8422 29.8257 18.0966 27.1198 19.5036 26.107C21.0005 25.0337 23.9192 23.7638 24.3833 23.658C24.4132 23.658 24.8622 23.522 25.0568 23.522C25.1017 23.522 25.1317 23.522 25.1766 23.522C25.925 23.5824 26.5237 24.2173 26.5237 25.0034Z" fill="#DF6F26"/>
<path d="M31.8074 10.3247C31.8074 10.3852 31.8074 10.4608 31.7924 10.5213C31.7325 10.9294 31.4781 11.2318 31.2087 11.5039C30.8344 11.8969 28.8886 13.7109 26.7931 14.9808C26.2392 15.3133 22.5271 17.5809 21.2399 17.9588C21.3147 17.3692 24.2335 12.3806 25.9099 11.2318C27.0625 10.4457 29.7418 8.76771 30.3405 8.84329C30.4153 8.85841 30.5051 8.84329 30.58 8.85841C31.2685 8.97934 31.8074 9.59914 31.8074 10.3247Z" fill="#DF6F26"/>
<path d="M65.1114 18.4578C65.6653 20.2567 70.8742 22.9475 71.2633 23.1289C71.7423 23.3557 72.2063 23.6127 72.6853 23.7941C73.4337 24.1266 74.6461 24.8069 75.3497 25.0488C75.2748 24.6708 75.1251 21.4509 72.0417 19.4253C70.5299 18.4276 69.093 17.5659 67.4165 16.7194C67.1471 16.5833 66.8777 16.4321 66.5484 16.4321C66.4735 16.4321 66.3837 16.4321 66.3089 16.4472C65.77 16.5379 65.336 16.9159 65.1563 17.4147C65.0366 17.7775 65.0815 18.352 65.1114 18.4578Z" fill="#DF6F26"/>
<path d="M67.4764 25.0034C67.4764 25.2453 67.5363 25.472 67.6411 25.6686C67.8806 26.0767 68.6589 26.7268 68.9284 26.9535C70.485 28.2687 73.9427 29.5838 76.0682 30.1583C76.158 29.8257 75.9035 27.1198 74.4965 26.107C72.9997 25.0337 70.0809 23.7638 69.6169 23.658C69.5869 23.658 69.1379 23.522 68.9433 23.522C68.8984 23.522 68.8685 23.522 68.8236 23.522C68.0752 23.5824 67.4764 24.2173 67.4764 25.0034Z" fill="#DF6F26"/>
<path d="M62.1927 10.3247C62.1927 10.3852 62.1927 10.4608 62.2077 10.5213C62.2676 10.9294 62.522 11.2318 62.7915 11.5039C63.1657 11.8969 65.1115 13.7109 67.2071 14.9808C67.7609 15.3133 71.473 17.5809 72.7603 17.9588C72.6854 17.3692 69.7666 12.3806 68.0902 11.2318C66.9377 10.4457 64.2584 8.76771 63.6596 8.84329C63.5848 8.85841 63.495 8.84329 63.4201 8.85841C62.7166 8.97934 62.1927 9.59914 62.1927 10.3247Z" fill="#DF6F26"/>
<path d="M57.7022 34.8747C57.7022 36.4771 58.8398 37.8225 60.3366 38.1248C60.4414 38.1097 60.5462 38.1097 60.6659 38.1097C60.8905 38.1097 61.1 38.1248 61.3096 38.1702C62.507 38.412 63.4799 39.319 63.8092 40.483C63.8392 40.9063 63.8691 41.3296 63.929 41.7377C64.3032 44.8065 65.4408 47.6182 67.1322 50.0218C67.1471 50.0369 67.1621 50.0671 67.1771 50.0823C67.3268 50.2788 67.4764 50.4904 67.6261 50.6869C68.1201 51.3218 68.644 51.9265 69.2127 52.4858C71.0538 54.315 73.299 55.7511 75.7838 56.643C75.7838 56.6883 75.7838 56.7337 75.7838 56.779C75.7838 64.4282 72.865 71.382 68.0752 76.5671C68.0752 76.5671 68.0752 76.567 68.0602 76.5822C66.9675 77.7764 65.7701 78.8648 64.4828 79.8625C64.3331 79.9835 64.1834 80.0893 64.0338 80.1951C64.0038 80.2253 63.9739 80.2405 63.944 80.2707C63.3003 80.8754 62.8962 81.737 62.8962 82.6894C62.8962 84.5185 64.3631 86 66.1742 86C66.6682 86 67.1322 85.8942 67.5513 85.6977C67.5812 85.6825 67.6261 85.6674 67.6561 85.6372C80.1096 79.4997 89.4497 67.9504 92.7277 54.0429C93.5659 50.5055 94 46.8019 94 43.0076C94 35.8573 92.4283 29.0698 89.6293 22.9777C85.0939 13.1366 77.3105 5.13974 67.671 0.362806C67.6261 0.332572 67.5812 0.317455 67.5213 0.287221C67.1172 0.105818 66.6532 0 66.1742 0C64.3631 0 62.8962 1.48145 62.8962 3.3106C62.8962 4.26296 63.3003 5.12463 63.944 5.7293C64.0787 5.83512 64.2134 5.94094 64.3481 6.04676C66.5185 7.81543 68.5242 9.76551 70.3503 11.897C71.3831 13.0156 72.3261 14.225 73.1643 15.5099C74.4965 17.5205 75.5892 19.7275 76.3825 22.0555C77.4153 25.0487 77.9691 28.2686 77.9691 31.6094C77.9691 33.5746 77.7745 35.4945 77.4153 37.3387C77.4003 37.6562 77.3255 37.9736 77.2207 38.2609C76.7567 39.5156 75.5592 40.4074 74.1522 40.4074C73.9726 40.4074 73.808 40.3923 73.6433 40.3621C73.2092 40.2865 72.8051 40.1353 72.4459 39.9237C71.907 39.5911 71.4729 39.1074 71.2035 38.5178C71.1287 38.3667 71.0838 38.2155 71.0239 38.0643C69.9462 35.434 67.8506 33.3327 65.2312 32.2594C64.0038 31.7606 62.6567 31.4734 61.2497 31.4734C61.2198 31.4734 61.085 31.4734 60.9803 31.4734C59.1541 31.4885 57.7022 33.0606 57.7022 34.8747Z" fill="#DF6F26"/>
</svg>
