<svg width="217" height="50" viewBox="0 0 217 50" fill="none" xmlns="http://www.w3.org/2000/svg">
<path d="M21.118 20.203C21.118 21.1334 20.4547 21.9042 19.5793 22.0903C19.5262 22.0903 19.4466 22.0903 19.3935 22.0903C19.2609 22.0903 19.1282 22.0903 19.0221 22.1169C18.3323 22.2498 17.7487 22.7815 17.563 23.446C17.5364 23.6853 17.5364 23.9245 17.5099 24.1638C17.2977 25.9448 16.6344 27.5664 15.6528 28.9487L15.6263 28.9753C15.5467 29.0816 15.4671 29.2145 15.361 29.3208C15.0691 29.693 14.7773 30.0386 14.4324 30.3576C13.3447 31.4209 12.0447 32.245 10.6121 32.75C10.6121 32.7766 10.6121 32.8032 10.6121 32.8298C10.6121 37.2425 12.31 41.2831 15.0957 44.2604C15.7324 44.9516 16.4222 45.5896 17.165 46.1478C17.2446 46.201 17.3242 46.2807 17.4303 46.3339C17.4568 46.3604 17.4568 46.3605 17.4834 46.387C17.8548 46.7326 18.0936 47.2377 18.0936 47.7959C18.0936 48.8592 17.2446 49.7099 16.1834 49.7099C15.8916 49.7099 15.6263 49.6567 15.3875 49.5238C15.361 49.5238 15.3344 49.4972 15.3344 49.4972C8.0917 45.9351 2.65301 39.2628 0.742841 31.2348C0.265298 29.188 0 27.0613 0 24.8549C0 20.708 0.902027 16.8004 2.5469 13.2914C5.19991 7.60269 9.73656 2.97726 15.3344 0.212643C15.361 0.18606 15.3875 0.186073 15.414 0.159491C15.6528 0.0531592 15.9181 0 16.2099 0C17.2711 0 18.1201 0.850638 18.1201 1.91395C18.1201 2.47219 17.8813 2.95069 17.5099 3.32285C17.4303 3.37602 17.3507 3.45576 17.2711 3.50892C15.9977 4.51907 14.8304 5.66212 13.7692 6.88493C13.159 7.52292 12.6284 8.24067 12.1243 8.9584C11.3549 10.128 10.7182 11.404 10.2406 12.7332C9.63045 14.461 9.31209 16.3218 9.31209 18.2624C9.31209 19.4055 9.4182 20.4954 9.63044 21.5852C9.63044 21.7713 9.68351 21.9574 9.73657 22.1169C10.0019 22.8346 10.7182 23.3663 11.5141 23.3663C11.6202 23.3663 11.7263 23.3663 11.8059 23.3397C12.0447 23.2865 12.2835 23.2068 12.4957 23.0739C12.8141 22.8878 13.0528 22.5954 13.212 22.2764C13.2651 22.1966 13.2916 22.1169 13.3181 22.0106C13.9549 20.4953 15.1752 19.2725 16.6875 18.6611C17.4038 18.3687 18.1732 18.2092 18.9956 18.2092C19.0221 18.2092 19.1017 18.2092 19.1548 18.2092C20.269 18.2624 21.118 19.1662 21.118 20.203Z" fill="#DF6F26"/>
<path d="M16.7936 10.7129C16.4752 11.7496 13.4243 13.318 13.212 13.3978C12.9202 13.5307 12.6549 13.6636 12.3896 13.7965C11.9386 13.9826 11.2488 14.3813 10.8243 14.5143C10.8774 14.3016 10.957 12.4408 12.761 11.2711C13.6365 10.6863 14.4855 10.1813 15.4406 9.70277C15.5998 9.62302 15.7589 9.54324 15.9446 9.54324C15.9977 9.54324 16.0242 9.54324 16.0773 9.54324C16.3957 9.59641 16.6344 9.8091 16.7405 10.1015C16.8467 10.3142 16.7936 10.6597 16.7936 10.7129Z" fill="#DF6F26"/>
<path d="M15.414 14.4877C15.414 14.6206 15.3875 14.7535 15.3079 14.8864C15.1752 15.1257 14.7242 15.4978 14.565 15.6307C13.663 16.4016 11.6467 17.1459 10.3998 17.4915C10.3467 17.3054 10.4794 15.7371 11.3018 15.1523C12.1773 14.5408 13.8753 13.7965 14.1406 13.7434C14.1671 13.7434 14.4059 13.6636 14.5385 13.6636C14.565 13.6636 14.5916 13.6636 14.6181 13.6636C15.0691 13.6902 15.414 14.0358 15.414 14.4877Z" fill="#DF6F26"/>
<path d="M18.4915 6.00776C18.4915 6.03434 18.4915 6.08751 18.4915 6.11409C18.465 6.35334 18.3058 6.51282 18.1466 6.6989C17.9344 6.93815 16.7936 7.97488 15.5732 8.69262C15.2549 8.8787 13.0794 10.1813 12.3365 10.4205C12.3896 10.0749 14.0875 7.20398 15.0691 6.53941C15.7324 6.0875 17.2977 5.10392 17.6426 5.15709C17.6956 5.15709 17.7222 5.15709 17.7752 5.15709C18.1732 5.23683 18.4915 5.58243 18.4915 6.00776Z" fill="#DF6F26"/>
<path d="M37.885 10.7129C38.2034 11.7496 41.2544 13.318 41.4666 13.3978C41.7584 13.5307 42.0237 13.6636 42.289 13.7965C42.7401 13.9826 43.4298 14.3813 43.8543 14.5143C43.8013 14.3016 43.7217 12.4408 41.9176 11.2711C41.0421 10.6863 40.1932 10.1813 39.2381 9.70277C39.0789 9.62302 38.9197 9.54324 38.734 9.54324C38.681 9.54324 38.6544 9.54324 38.6014 9.54324C38.283 9.59641 38.0442 9.8091 37.9381 10.1015C37.8585 10.3142 37.885 10.6597 37.885 10.7129Z" fill="#DF6F26"/>
<path d="M39.2646 14.4877C39.2646 14.6206 39.2912 14.7535 39.3708 14.8864C39.5034 15.1257 39.9544 15.4978 40.1136 15.6307C41.0156 16.4016 43.0319 17.1459 44.2788 17.4915C44.3319 17.3054 44.1992 15.7371 43.3768 15.1523C42.5013 14.5408 40.8034 13.7965 40.5381 13.7434C40.5115 13.7434 40.2728 13.6636 40.1401 13.6636C40.1136 13.6636 40.0871 13.6636 40.0605 13.6636C39.6095 13.6902 39.2646 14.0358 39.2646 14.4877Z" fill="#DF6F26"/>
<path d="M36.1871 6.00776C36.1871 6.03434 36.1871 6.08751 36.1871 6.11409C36.2137 6.35334 36.3728 6.51282 36.532 6.6989C36.7443 6.93815 37.8851 7.97488 39.1055 8.69262C39.4238 8.8787 41.5993 10.1813 42.3421 10.4205C42.2891 10.0749 40.5911 7.20398 39.6095 6.53941C38.9463 6.0875 37.381 5.10392 37.0361 5.15709C36.983 5.15709 36.9565 5.15709 36.9035 5.15709C36.5055 5.23683 36.1871 5.58243 36.1871 6.00776Z" fill="#DF6F26"/>
<path d="M33.5607 20.203C33.5607 21.1334 34.2239 21.9043 35.0994 22.0904C35.1525 22.0904 35.2321 22.0904 35.2851 22.0904C35.4178 22.0904 35.5504 22.0904 35.6565 22.117C36.3463 22.2499 36.93 22.7815 37.1157 23.4461C37.1422 23.6853 37.1422 23.9246 37.1688 24.1638C37.381 25.9449 38.0443 27.5664 39.0259 28.9487L39.0524 28.9753C39.132 29.0817 39.2116 29.2146 39.3177 29.3209C39.6095 29.6931 39.9014 30.0386 40.2463 30.3576C41.334 31.4209 42.634 32.245 44.0666 32.7501C44.0666 32.7767 44.0666 32.8033 44.0666 32.8298C44.0666 37.2426 42.3687 41.2832 39.583 44.2605C38.9463 44.9516 38.2565 45.5896 37.5136 46.1478C37.4341 46.201 37.3545 46.2807 37.2483 46.3339C37.2218 46.3605 37.2218 46.3605 37.1953 46.3871C36.8239 46.7327 36.5851 47.2377 36.5851 47.796C36.5851 48.8593 37.4341 49.7099 38.4953 49.7099C38.7871 49.7099 39.0524 49.6568 39.2912 49.5238C39.3177 49.5238 39.3442 49.4973 39.3442 49.4973C46.587 45.9352 52.0256 39.2629 53.9358 31.2349C54.4134 29.188 54.6787 27.0614 54.6787 24.855C54.6787 20.7081 53.7766 16.8004 52.1318 13.2915C49.4787 7.60274 44.9421 2.9773 39.3442 0.212689C39.3177 0.186106 39.2912 0.186119 39.2646 0.159536C39.0259 0.053205 38.7606 4.57764e-05 38.4687 4.57764e-05C37.4075 4.57764e-05 36.5586 0.850684 36.5586 1.914C36.5586 2.47224 36.7973 2.95074 37.1688 3.3229C37.2483 3.37607 37.3279 3.4558 37.4075 3.50897C38.681 4.51911 39.8483 5.66216 40.9095 6.88497C41.5197 7.52296 42.0503 8.24071 42.5544 8.95845C43.3238 10.1281 43.9605 11.4041 44.438 12.7332C45.0482 14.4611 45.3666 16.3219 45.3666 18.2624C45.3666 19.4055 45.2605 20.4954 45.0482 21.5853C45.0482 21.7714 44.9952 21.9575 44.9421 22.117C44.6768 22.8347 43.9605 23.3663 43.1646 23.3663C43.0585 23.3663 42.9523 23.3663 42.8727 23.3398C42.634 23.2866 42.3952 23.2068 42.183 23.0739C41.8646 22.8878 41.6258 22.5954 41.4666 22.2764C41.4136 22.1967 41.387 22.1169 41.3605 22.0106C40.7238 20.4954 39.5034 19.2726 37.9912 18.6612C37.2749 18.3688 36.5055 18.2093 35.6831 18.2093C35.6565 18.2093 35.5769 18.2093 35.5239 18.2093C34.4361 18.2625 33.5607 19.1663 33.5607 20.203Z" fill="#DF6F26"/>
<path d="M76.9097 30.5168C75.2049 30.5168 73.7132 30.2507 72.4345 29.7451C71.1559 29.2128 70.1703 28.6274 69.4777 27.9089C68.7851 27.217 68.4388 26.5783 68.4388 26.0195C68.4388 25.7534 68.5188 25.4873 68.6519 25.1945C68.7851 24.9284 68.9716 24.6623 69.2114 24.476C69.4245 24.2631 69.6642 24.1833 69.9039 24.1833C70.2236 24.1833 70.5432 24.343 70.8363 24.6623C71.1293 24.9816 71.5288 25.3542 71.9817 25.8066C72.4345 26.259 73.0472 26.6315 73.7931 26.9509C74.539 27.2702 75.5246 27.4299 76.7233 27.4299C77.8421 27.4299 78.801 27.2436 79.6268 26.8977C80.4526 26.5517 81.0919 25.9929 81.5714 25.2743C82.0242 24.5558 82.264 23.6245 82.264 22.5068C82.264 21.3625 82.0242 20.4311 81.5447 19.7126C81.0653 18.9941 80.426 18.382 79.6534 17.903C78.8543 17.424 78.0285 16.9982 77.0962 16.6257C76.1639 16.2531 75.2315 15.8806 74.2992 15.4814C73.3402 15.1089 72.4878 14.6299 71.7153 14.0444C70.9428 13.4856 70.3301 12.7404 69.824 11.8357C69.3445 10.9309 69.1048 9.78661 69.1048 8.40282C69.1048 6.9392 69.3712 5.74168 69.9039 4.75706C70.4367 3.79905 71.1293 3.02733 72.0083 2.4951C72.8874 1.93626 73.8464 1.53709 74.8586 1.3242C75.8709 1.11131 76.8831 0.978271 77.8687 0.978271C78.5879 0.978271 79.3338 1.03149 80.1329 1.13793C80.9321 1.24438 81.6779 1.40406 82.3972 1.61695C83.1164 1.82984 83.7024 2.09595 84.1553 2.44189C84.6081 2.78784 84.8479 3.1604 84.8479 3.61279C84.8479 3.82568 84.7946 4.06517 84.688 4.35789C84.5815 4.65061 84.4216 4.89012 84.2085 5.12962C83.9954 5.36913 83.7291 5.47558 83.4094 5.47558C83.1164 5.47558 82.7434 5.34252 82.3439 5.10302C81.9177 4.86352 81.3583 4.59739 80.639 4.35789C79.9198 4.11839 79.0141 3.98533 77.8687 3.98533C76.9097 3.98533 76.004 4.11838 75.1783 4.3845C74.3258 4.65061 73.6599 5.10301 73.1804 5.68845C72.6743 6.30051 72.4345 7.12548 72.4345 8.13671C72.4345 9.09472 72.6743 9.89304 73.1538 10.4785C73.6333 11.0905 74.2459 11.5962 75.0184 11.9953C75.7909 12.3945 76.6433 12.7671 77.5757 13.0864C78.508 13.4323 79.4403 13.8049 80.3727 14.2573C81.305 14.6831 82.1574 15.2419 82.9566 15.8806C83.7291 16.5193 84.3684 17.3442 84.8479 18.3821C85.3273 19.4199 85.5671 20.6972 85.5671 22.2407C85.5671 24.1567 85.1941 25.7267 84.4216 26.9775C83.6491 28.2282 82.6369 29.133 81.3316 29.7451C80.1329 30.2241 78.6146 30.5168 76.9097 30.5168Z" fill="black"/>
<path d="M96.7668 30.3368C94.6091 30.3368 92.9575 29.8579 91.8387 28.8998C90.6933 27.9418 90.1339 26.425 90.1339 24.3227V3.77879C90.1339 3.43284 90.2937 3.16674 90.6667 2.95385C91.013 2.74096 91.3859 2.63449 91.7855 2.63449C92.2117 2.63449 92.5846 2.74096 92.9309 2.95385C93.2772 3.16674 93.4637 3.45945 93.4637 3.77879V11.4428H98.4982C98.8179 11.4428 99.0576 11.5759 99.2441 11.842C99.4039 12.1081 99.5105 12.4274 99.5105 12.7468C99.5105 13.0927 99.4306 13.3855 99.2441 13.6516C99.0576 13.9177 98.8179 14.0241 98.4982 14.0241H93.4637V24.3227C93.4637 25.467 93.7034 26.2653 94.2095 26.7443C94.689 27.2233 95.5681 27.4362 96.7934 27.4362H98.0187C98.4982 27.4362 98.8712 27.5959 99.1109 27.8886C99.3507 28.1813 99.4572 28.5273 99.4572 28.8998C99.4572 29.2724 99.324 29.6183 99.1109 29.9111C98.8712 30.2304 98.5249 30.3635 98.0187 30.3635H96.7668V30.3368Z" fill="black"/>
<path d="M104.172 30.3369C103.719 30.3369 103.346 30.2038 103.027 29.9643C102.707 29.7248 102.574 29.4321 102.574 29.1394V12.5872C102.574 12.2412 102.734 11.9751 103.027 11.7356C103.32 11.5227 103.719 11.4163 104.172 11.4163C104.625 11.4163 104.998 11.5227 105.291 11.7356C105.584 11.9485 105.744 12.2412 105.744 12.5872V14.4499C106.037 13.8911 106.436 13.3589 106.942 12.8799C107.449 12.4009 108.035 11.9751 108.727 11.6558C109.42 11.3364 110.166 11.1767 110.991 11.1767H112.35C112.696 11.1767 112.989 11.3364 113.256 11.6292C113.495 11.9219 113.629 12.2944 113.629 12.6936C113.629 13.0928 113.495 13.4387 113.256 13.7315C112.989 14.0242 112.696 14.1838 112.35 14.1838H110.991C110.139 14.1838 109.34 14.4233 108.567 14.9023C107.795 15.3813 107.156 16.0466 106.676 16.9248C106.17 17.7764 105.93 18.8408 105.93 20.0649V29.166C105.93 29.4587 105.77 29.7248 105.424 29.9909C105.051 30.2038 104.652 30.3369 104.172 30.3369Z" fill="black"/>
<path d="M120.395 30.6562C118.903 30.6562 117.624 30.2304 116.585 29.3522C115.52 28.5007 115.014 27.1435 115.014 25.3339C115.014 23.8703 115.413 22.726 116.213 21.9277C117.012 21.1293 118.104 20.5705 119.516 20.2512C120.901 19.9585 122.526 19.7988 124.364 19.7988H126.282V18.9472C126.282 18.1489 126.122 17.3771 125.829 16.6054C125.536 15.8603 125.083 15.2216 124.444 14.7426C123.804 14.2636 122.952 13.9975 121.86 13.9975C120.927 13.9975 120.182 14.104 119.649 14.2636C119.089 14.4499 118.663 14.6362 118.344 14.8491C118.024 15.062 117.758 15.1418 117.518 15.1418C117.118 15.1418 116.799 14.9555 116.585 14.5564C116.372 14.1838 116.266 13.8112 116.266 13.4653C116.266 13.0395 116.559 12.667 117.145 12.2944C117.731 11.9485 118.477 11.6823 119.329 11.4695C120.208 11.2566 121.061 11.1501 121.94 11.1501C123.804 11.1501 125.296 11.5227 126.415 12.2678C127.534 13.0129 128.333 13.9709 128.839 15.1418C129.318 16.3127 129.585 17.5634 129.585 18.894V29.1127C129.585 29.4321 129.425 29.6982 129.132 29.9643C128.812 30.2038 128.439 30.3102 127.96 30.3102C127.534 30.3102 127.161 30.1772 126.894 29.9643C126.601 29.7248 126.441 29.4321 126.441 29.1127V27.516C125.749 28.3144 124.896 29.0329 123.938 29.6715C122.925 30.3368 121.753 30.6562 120.395 30.6562ZM121.434 27.9684C122.206 27.9684 122.952 27.7556 123.698 27.3298C124.417 26.904 125.03 26.3718 125.536 25.7331C126.015 25.0944 126.282 24.4824 126.282 23.8969V21.8212H124.896C123.778 21.8212 122.712 21.9011 121.727 22.0341C120.714 22.1672 119.915 22.4599 119.303 22.8857C118.69 23.3114 118.37 24.03 118.37 24.988C118.37 26.0258 118.663 26.7975 119.249 27.2499C119.809 27.7289 120.555 27.9684 121.434 27.9684Z" fill="black"/>
<path d="M133.74 39.4645C133.314 39.4645 132.941 39.3581 132.675 39.1718C132.382 38.9589 132.222 38.5863 132.222 38.0009C132.222 37.6283 132.302 37.2824 132.435 36.9897C132.568 36.6969 132.835 36.5639 133.181 36.5639C133.767 36.5639 134.353 36.4042 134.939 36.0583C135.525 35.7123 136.084 35.2333 136.644 34.568C137.177 33.9027 137.656 33.1576 138.056 32.2795C138.455 31.4013 138.748 30.4167 138.935 29.3788L132.302 13.1992C132.222 13.0395 132.195 12.9064 132.195 12.7468C132.195 12.4541 132.302 12.1879 132.542 11.9484C132.781 11.7089 133.074 11.5227 133.394 11.363C133.714 11.2299 134.033 11.1501 134.326 11.1501C134.539 11.1501 134.753 11.2033 134.966 11.3098C135.179 11.4162 135.312 11.6025 135.365 11.842L140.666 25.7331L145.434 11.842C145.514 11.6025 145.647 11.4428 145.861 11.3098C146.074 11.2033 146.26 11.1501 146.473 11.1501C146.74 11.1501 147.033 11.2299 147.379 11.363C147.699 11.5227 147.992 11.7089 148.231 11.9484C148.471 12.1879 148.578 12.4807 148.578 12.8C148.578 12.9597 148.551 13.0927 148.498 13.1992L142.371 29.4321C141.971 30.5231 141.545 31.6408 141.092 32.8383C140.64 34.0092 140.107 35.1003 139.467 36.0849C138.828 37.0961 138.056 37.8944 137.123 38.5331C136.244 39.1718 135.099 39.4645 133.74 39.4645Z" fill="black"/>
<path d="M158.913 30.6562C157.208 30.6562 155.717 30.3901 154.438 29.8845C153.159 29.3523 152.174 28.7668 151.481 28.0483C150.789 27.3564 150.442 26.7178 150.442 26.1589C150.442 25.8928 150.522 25.6267 150.655 25.334C150.789 25.0679 150.975 24.8017 151.215 24.6155C151.428 24.4026 151.668 24.3227 151.907 24.3227C152.227 24.3227 152.547 24.4824 152.84 24.8018C153.133 25.1211 153.532 25.4936 153.985 25.946C154.438 26.3984 155.051 26.771 155.797 27.0903C156.542 27.4097 157.528 27.5693 158.727 27.5693C159.846 27.5693 160.804 27.3831 161.63 27.0371C162.456 26.6912 163.095 26.1323 163.575 25.4138C164.028 24.6953 164.267 23.7639 164.267 22.6463C164.267 21.502 164.028 20.5706 163.548 19.8521C163.069 19.1336 162.429 18.5215 161.657 18.0425C160.858 17.5635 160.032 17.1377 159.1 16.7651C158.167 16.3926 157.235 16.02 156.303 15.6209C155.344 15.2483 154.491 14.7693 153.719 14.1839C152.946 13.625 152.334 12.8799 151.827 11.9751C151.348 11.0703 151.108 9.92606 151.108 8.54227C151.108 7.07865 151.375 5.88113 151.907 4.89651C152.44 3.9385 153.133 3.16678 154.012 2.63455C154.891 2.07571 155.85 1.67654 156.862 1.46365C157.874 1.25076 158.887 1.11772 159.872 1.11772C160.591 1.11772 161.337 1.17094 162.136 1.27738C162.936 1.38383 163.681 1.54351 164.401 1.7564C165.12 1.96929 165.706 2.2354 166.159 2.58134C166.612 2.92729 166.851 3.29985 166.851 3.75224C166.851 3.96513 166.798 4.20462 166.691 4.49734C166.585 4.79006 166.425 5.02957 166.212 5.26907C165.999 5.50858 165.733 5.61503 165.413 5.61503C165.12 5.61503 164.747 5.48197 164.347 5.24247C163.921 5.00297 163.362 4.73684 162.643 4.49734C161.923 4.25784 161.018 4.12478 159.872 4.12478C158.913 4.12478 158.007 4.25783 157.182 4.52395C156.329 4.79006 155.663 5.24246 155.184 5.8279C154.678 6.43996 154.438 7.26493 154.438 8.27616C154.438 9.23417 154.678 10.0325 155.157 10.6179C155.637 11.23 156.249 11.7356 157.022 12.1348C157.794 12.534 158.647 12.9065 159.579 13.2259C160.511 13.5718 161.444 13.9444 162.376 14.3968C163.308 14.8225 164.161 15.3814 164.96 16.02C165.732 16.6587 166.372 17.4837 166.851 18.5215C167.331 19.5593 167.571 20.8367 167.571 22.3801C167.571 24.2962 167.198 25.8662 166.425 27.1169C165.653 28.3677 164.64 29.2724 163.335 29.8845C162.11 30.3635 160.618 30.6562 158.913 30.6562Z" fill="black"/>
<path d="M175.695 30.6562C174.203 30.6562 172.925 30.2304 171.886 29.3522C170.82 28.5007 170.314 27.1435 170.314 25.3339C170.314 23.8703 170.714 22.726 171.513 21.9277C172.312 21.1293 173.404 20.5705 174.816 20.2512C176.201 19.9585 177.826 19.7988 179.664 19.7988H181.582V18.9472C181.582 18.1489 181.422 17.3771 181.129 16.6054C180.836 15.8603 180.383 15.2216 179.744 14.7426C179.105 14.2636 178.252 13.9975 177.16 13.9975C176.228 13.9975 175.482 14.104 174.949 14.2636C174.39 14.4499 173.964 14.6362 173.644 14.8491C173.324 15.062 173.058 15.1418 172.818 15.1418C172.419 15.1418 172.099 14.9555 171.886 14.5564C171.673 14.1838 171.566 13.8112 171.566 13.4653C171.566 13.0395 171.859 12.667 172.445 12.2944C173.031 11.9485 173.777 11.6823 174.63 11.4695C175.509 11.2566 176.361 11.1501 177.24 11.1501C179.105 11.1501 180.597 11.5227 181.715 12.2678C182.834 13.0129 183.633 13.9709 184.139 15.1418C184.619 16.3127 184.885 17.5634 184.885 18.894V29.1127C184.885 29.4321 184.725 29.6982 184.432 29.9643C184.113 30.2038 183.74 30.3102 183.26 30.3102C182.834 30.3102 182.461 30.1772 182.195 29.9643C181.902 29.7248 181.742 29.4321 181.742 29.1127V27.516C181.049 28.3144 180.197 29.0329 179.238 29.6715C178.226 30.3368 177.054 30.6562 175.695 30.6562ZM176.734 27.9684C177.506 27.9684 178.252 27.7556 178.998 27.3298C179.717 26.904 180.33 26.3718 180.836 25.7331C181.316 25.0944 181.582 24.4824 181.582 23.8969V21.8212H180.197C179.078 21.8212 178.013 21.9011 177.027 22.0341C176.015 22.1672 175.216 22.4599 174.603 22.8857C173.99 23.3114 173.671 24.03 173.671 24.988C173.671 26.0258 173.964 26.7975 174.55 27.2499C175.109 27.7289 175.855 27.9684 176.734 27.9684Z" fill="black"/>
<path d="M191.039 30.3369C190.586 30.3369 190.213 30.2304 189.893 30.0175C189.574 29.8047 189.44 29.5385 189.44 29.1926V7.4778C189.44 6.09401 189.76 4.84326 190.399 3.69897C191.039 2.5813 191.891 1.67652 192.983 1.01124C194.049 0.34596 195.247 0 196.526 0H197.911C198.337 0 198.684 0.159687 198.923 0.452411C199.163 0.745135 199.296 1.09109 199.296 1.49026C199.296 1.86282 199.163 2.20874 198.923 2.50147C198.684 2.79419 198.337 2.95388 197.911 2.95388H197.085C196.26 2.95388 195.514 3.14014 194.874 3.53931C194.209 3.93848 193.702 4.44411 193.329 5.08278C192.957 5.74806 192.77 6.43996 192.77 7.21168V11.4429H198.231C198.551 11.4429 198.79 11.5759 198.977 11.842C199.163 12.1081 199.27 12.4275 199.27 12.7468C199.27 13.0661 199.163 13.3589 198.977 13.625C198.79 13.8911 198.551 14.0242 198.231 14.0242H192.77V29.1926C192.77 29.5385 192.584 29.8313 192.237 30.0175C191.891 30.2304 191.491 30.3369 191.039 30.3369Z" fill="black"/>
<path d="M210.165 30.6562C208.433 30.6562 206.915 30.3369 205.583 29.6716C204.251 29.0329 203.186 28.1015 202.44 26.9572C201.667 25.7863 201.294 24.4558 201.294 22.9123V18.7077C201.294 17.3506 201.667 16.0998 202.386 14.9556C203.106 13.8113 204.091 12.9065 205.29 12.2146C206.489 11.5227 207.794 11.1767 209.232 11.1767C210.618 11.1767 211.896 11.4961 213.042 12.1348C214.187 12.7734 215.119 13.6516 215.839 14.7427C216.531 15.8337 216.904 17.1111 216.904 18.5215C216.904 19.5859 216.718 20.3577 216.371 20.81C216.025 21.289 215.572 21.5551 215.066 21.6616C214.533 21.768 213.974 21.8213 213.388 21.8213H204.597V23.0188C204.597 24.509 205.13 25.6799 206.196 26.5581C207.261 27.4362 208.646 27.862 210.325 27.862C211.31 27.862 212.083 27.729 212.695 27.4629C213.281 27.1968 213.761 26.9306 214.134 26.6911C214.507 26.4516 214.826 26.3186 215.146 26.3186C215.439 26.3186 215.679 26.3984 215.892 26.5847C216.105 26.771 216.238 26.9573 216.345 27.1968C216.451 27.4363 216.505 27.6492 216.505 27.8354C216.505 28.1814 216.238 28.5805 215.732 29.0063C215.226 29.4587 214.507 29.8313 213.548 30.1772C212.562 30.4965 211.443 30.6562 210.165 30.6562ZM204.571 19.5859H211.976C212.695 19.5859 213.175 19.5061 213.388 19.3198C213.601 19.1602 213.734 18.8142 213.734 18.3086C213.734 17.5102 213.548 16.7651 213.148 16.0998C212.749 15.4079 212.216 14.8757 211.523 14.4499C210.831 14.0242 210.058 13.8113 209.152 13.8113C208.327 13.8113 207.554 13.9976 206.888 14.3967C206.196 14.7959 205.636 15.3015 205.21 15.9668C204.784 16.6321 204.571 17.3506 204.571 18.1489V19.5859Z" fill="black"/>
<path d="M100.15 40.4492V47.6342H99.2174V41.2475H95.8877V47.6342H94.9553V40.4492H100.15Z" fill="black"/>
<path d="M101.748 44.1482C101.748 43.4829 101.721 42.9507 101.695 42.4717H102.547L102.6 43.3498H102.627C103 42.7112 103.613 42.3386 104.465 42.3386C105.717 42.3386 106.649 43.4031 106.649 44.9465C106.649 46.8093 105.531 47.7141 104.305 47.7141C103.613 47.7141 103.027 47.4214 102.707 46.9158H102.68V49.7099H101.748V44.1482ZM102.68 45.5054C102.68 45.6384 102.707 45.7715 102.734 45.8779C102.893 46.5166 103.48 46.969 104.145 46.969C105.131 46.969 105.717 46.1706 105.717 44.9731C105.717 43.9353 105.184 43.0571 104.172 43.0571C103.533 43.0571 102.947 43.5095 102.76 44.228C102.734 44.3345 102.707 44.4942 102.707 44.6006V45.5054H102.68Z" fill="black"/>
<path d="M108.674 42.4717V44.6538C108.674 45.4788 108.674 45.9844 108.621 46.7295H108.647C108.967 46.0908 109.127 45.7449 109.473 45.1328L111.071 42.4717H112.164V47.6343H111.258V45.4521C111.258 44.6006 111.284 44.1748 111.311 43.3498H111.284C110.965 44.0151 110.725 44.4143 110.432 44.9465C109.953 45.7449 109.367 46.7295 108.834 47.6343H107.768V42.4717H108.674Z" fill="black"/>
<path d="M114.614 42.4717V44.6538H115.493C115.653 43.2967 116.559 42.3653 117.784 42.3653C119.116 42.3653 120.048 43.4297 120.048 45.0264C120.048 46.7029 119.036 47.7673 117.731 47.7673C116.505 47.7673 115.6 46.8626 115.493 45.3723H114.641V47.6343H113.735V42.4717H114.614ZM119.116 45.0264C119.116 44.0684 118.69 43.0572 117.757 43.0572C116.852 43.0572 116.372 44.0418 116.372 45.0796C116.372 46.0908 116.825 47.0488 117.731 47.0488C118.69 47.0488 119.116 45.9844 119.116 45.0264Z" fill="black"/>
<path d="M124.71 42.4717V43.2168H123.112V47.6343H122.179V43.2168H120.581V42.4717H124.71Z" fill="black"/>
<path d="M131.742 42.4717V46.9158H132.275L132.222 49.2576H131.476L131.423 47.6077H127.853L127.8 49.2576H127.054L127.001 46.9158H127.427C127.64 46.5964 127.827 46.2239 127.933 45.8513C128.146 45.2126 128.226 44.5208 128.226 43.8023V42.4717H131.742ZM129.132 44.0417C129.132 44.7336 129.025 45.3723 128.866 45.9578C128.759 46.3037 128.599 46.623 128.439 46.9158H130.81V43.1902H129.105V44.0417H129.132Z" fill="black"/>
<path d="M137.256 42.4717V47.6343H136.324V43.2168H134.566V44.5474C134.566 45.9844 134.433 46.969 133.767 47.3948C133.501 47.6077 133.234 47.7141 132.755 47.7141L132.648 46.969C132.835 46.9424 133.021 46.8625 133.154 46.7561C133.634 46.4102 133.687 45.6916 133.687 44.5207V42.4451H137.256V42.4717Z" fill="black"/>
<path d="M142.557 47.6076H141.625V45.4521H140.933C140.533 45.4521 140.267 45.5585 140.08 45.7448C139.707 46.0642 139.547 46.7028 139.361 47.1818C139.308 47.3415 139.228 47.4746 139.148 47.6076H138.136C138.242 47.4479 138.349 47.2351 138.455 47.0222C138.668 46.5166 138.801 45.8513 139.254 45.4787C139.414 45.3457 139.601 45.2126 139.84 45.186V45.1594C139.174 45.0796 138.482 44.6804 138.482 43.882C138.482 43.3498 138.775 42.9773 139.174 42.7644C139.601 42.5249 140.24 42.4184 140.906 42.4184C141.519 42.4184 142.131 42.4716 142.557 42.5249V47.6076ZM141.625 43.0837C141.385 43.0571 141.172 43.0305 140.853 43.0305C140.213 43.0305 139.467 43.2168 139.467 43.9353C139.467 44.6006 140.293 44.84 140.853 44.84C141.226 44.84 141.439 44.84 141.652 44.84V43.0837H141.625Z" fill="black"/>
<path d="M146.633 42.4717L148.338 44.707H148.524V42.4717H149.43V44.707H149.617L151.321 42.4717H152.387L150.362 44.8135C151.135 44.8933 151.588 45.3457 151.907 46.1706C152.094 46.6763 152.254 47.2085 152.467 47.6077H151.534C151.375 47.2883 151.215 46.8625 151.055 46.4367C150.735 45.5852 150.256 45.3457 149.59 45.3457H149.43V47.6343H148.524V45.3457H148.365C147.645 45.3457 147.192 45.6118 146.873 46.4634C146.713 46.9158 146.553 47.3149 146.393 47.6343H145.488C145.701 47.2085 145.861 46.6763 146.047 46.1973C146.367 45.3723 146.82 44.9199 147.592 44.8135L145.541 42.4717H146.633Z" fill="black"/>
<path d="M154.172 42.4717V44.6538C154.172 45.4788 154.172 45.9844 154.118 46.7295H154.145C154.465 46.0908 154.624 45.7449 154.971 45.1328L156.569 42.4717H157.661V47.6343H156.755V45.4521C156.755 44.6006 156.782 44.1748 156.809 43.3498H156.782C156.462 44.0151 156.223 44.4143 155.93 44.9465C155.45 45.7449 154.864 46.7295 154.331 47.6343H153.266V42.4717H154.172Z" fill="black"/>
<path d="M159.18 42.5249C159.552 42.4716 160.218 42.4184 160.831 42.4184C161.684 42.4184 163.122 42.5515 163.122 43.6958C163.122 44.3344 162.643 44.7336 162.056 44.8667V44.8933C162.802 44.9997 163.362 45.4255 163.362 46.1706C163.362 47.5278 161.657 47.6875 160.645 47.6875C160.059 47.6875 159.473 47.6342 159.206 47.6342V42.5249H159.18ZM160.085 46.9956C160.352 47.0222 160.538 47.0488 160.831 47.0488C161.47 47.0488 162.403 46.8891 162.403 46.144C162.403 45.3989 161.657 45.2392 160.751 45.2392H160.059V46.9956H160.085ZM160.085 44.6272H160.778C161.47 44.6272 162.19 44.4143 162.19 43.8288C162.19 43.3232 161.737 43.0837 160.804 43.0837C160.485 43.0837 160.298 43.1103 160.085 43.1369V44.6272Z" fill="black"/>
<path d="M169.195 44.9998C169.195 46.9158 167.864 47.7407 166.638 47.7407C165.253 47.7407 164.161 46.7295 164.161 45.0796C164.161 43.3498 165.28 42.3386 166.718 42.3386C168.21 42.3386 169.195 43.4297 169.195 44.9998ZM165.12 45.053C165.12 46.1706 165.759 47.0222 166.691 47.0222C167.597 47.0222 168.263 46.1707 168.263 45.0264C168.263 44.1482 167.837 43.0571 166.718 43.0571C165.599 43.0571 165.12 44.0684 165.12 45.053Z" fill="black"/>
<path d="M173.884 42.4717V43.2168H172.285V47.6343H171.353V43.2168H169.755V42.4717H173.884Z" fill="black"/>
<path d="M175.668 42.4717V44.5474H178.119V42.4717H179.051V47.6343H178.119V45.2925H175.668V47.6343H174.736V42.4717H175.668Z" fill="black"/>
<path d="M181.502 42.4717V44.228C181.715 44.1748 182.008 44.1748 182.355 44.1748C183.473 44.1748 184.592 44.6272 184.592 45.9045C184.592 46.4368 184.379 46.8093 184.059 47.102C183.5 47.581 182.674 47.6875 181.982 47.6875C181.449 47.6875 180.969 47.6609 180.596 47.6077V42.4717H181.502ZM181.502 46.969C181.689 46.9956 181.875 47.0222 182.141 47.0222C182.861 47.0222 183.633 46.7295 183.633 45.9312C183.633 45.1062 182.887 44.8401 182.195 44.8401C181.928 44.8401 181.689 44.8667 181.502 44.8933V46.969ZM186.137 42.4717V47.6343H185.205V42.4717H186.137Z" fill="black"/>
<path d="M188.108 42.4717L188.854 43.5894C189.041 43.8821 189.201 44.1482 189.387 44.4409H189.414C189.574 44.1216 189.76 43.8555 189.92 43.5894L190.639 42.4983H191.651L189.893 44.9998L191.705 47.6609H190.639L189.893 46.49C189.68 46.1973 189.52 45.9045 189.334 45.5852H189.307C189.147 45.9045 188.961 46.1707 188.774 46.49L188.029 47.6609H186.99L188.828 45.0264L187.07 42.4983H188.108V42.4717Z" fill="black"/>
</svg>
