<svg width="25" height="26" viewBox="0 0 25 26" fill="none" xmlns="http://www.w3.org/2000/svg">
<path d="M24.9461 17.7765C24.3114 20.0597 21.7131 20.4674 19.462 20.6654C19.2584 20.6887 19.019 20.6538 18.8274 20.5722C17.7378 20.0713 17.4025 19.0928 17.2468 18.0444C17.1151 17.1474 17.4264 16.3669 18.2766 15.9709C19.1387 15.5748 20.0607 15.2836 20.9827 15.0739C21.5455 14.9458 22.1561 15.004 22.7429 15.0506C23.6888 15.1205 24.3593 15.5981 24.7185 16.4601C24.7904 16.6349 24.8742 16.8096 24.9461 16.9727C25.0179 17.1824 25.0179 17.5086 24.9461 17.7765Z" fill="#DF6F26"/>
<path d="M15.5826 15.0505C15.427 16.0873 15.3312 17.1124 15.1037 18.1259C14.7445 19.7451 15.0438 21.3643 15.0079 22.9835C14.972 24.3698 13.9542 25.558 12.5892 25.8841C10.4458 26.3967 8.17079 25.1619 7.47631 23.1C7.34459 22.7156 7.23683 22.3312 7.15301 21.9351C6.90156 20.7003 6.15918 20.0014 4.866 19.8033C3.14176 19.5471 1.86055 18.5918 0.914612 17.2289C0.591316 16.7629 0.375785 16.2038 0.232098 15.6679C-0.0433017 14.6661 0.291969 13.7808 1.21396 13.3032C2.06411 12.8722 3.02202 12.511 3.96796 12.3596C5.54851 12.115 6.81774 11.4626 7.88342 10.3327C9.05686 9.08622 10.5656 8.76005 12.206 9.10952C13.8584 9.45899 14.8283 10.554 15.1755 12.115C15.3911 13.0702 15.4509 14.0604 15.5826 15.0505Z" fill="#DF6F26"/>
<path d="M20.037 5.51001C22.0127 5.51001 23.1622 7.23407 22.3839 8.65525C21.5936 10.0997 20.4321 11.218 18.8755 11.9286C18.169 12.2548 17.4506 12.2199 16.8878 11.719C16.349 11.2413 15.882 10.6589 15.4989 10.0531C15.1636 9.52893 15.1995 8.89988 15.5348 8.36403C16.6603 6.65162 18.3367 5.82453 20.037 5.51001Z" fill="#DF6F26"/>
<path d="M13.2234 0C14.78 0 15.6541 0.955222 15.4386 2.55114C15.259 3.90243 14.792 5.18382 13.9179 6.29048C13.2234 7.17581 12.5169 7.40879 11.4393 7.07097C10.9603 6.91953 10.4814 6.70985 10.0743 6.41862C9.28399 5.87112 8.97267 5.12558 9.21215 4.15871C9.59531 2.63268 10.4455 1.38624 11.7027 0.442664C12.0979 0.151438 12.8402 0.0232981 13.2234 0Z" fill="#DF6F26"/>
<path d="M5.54841 8.00292C5.54841 10.5657 3.24943 11.8588 1.3815 10.7754C0.998335 10.5541 0.651092 10.1114 0.483457 9.69204C-0.175107 8.16601 -0.127212 6.59339 0.423588 5.04407C0.770831 4.0772 1.56111 3.64618 2.55494 3.58794C3.46496 3.52969 4.14747 3.97236 4.55458 4.75284C5.17722 5.91775 5.53644 7.15254 5.54841 8.00292Z" fill="#DF6F26"/>
</svg>
