<svg width="36" height="26" viewBox="0 0 36 26" fill="none" xmlns="http://www.w3.org/2000/svg">
<path fill-rule="evenodd" clip-rule="evenodd" d="M19.8293 2H35C35.5523 2 36 2.44772 36 3C36 3.55228 35.5523 4 35 4H19.8293C19.4175 5.16519 18.3062 6 17 6C15.6938 6 14.5825 5.16519 14.1707 4H1C0.447715 4 0 3.55228 0 3C0 2.44772 0.447715 2 1 2H14.1707C14.5825 0.834808 15.6938 0 17 0C18.3062 0 19.4175 0.834808 19.8293 2ZM1 12C0.447715 12 0 12.4477 0 13C0 13.5523 0.447715 14 1 14H23.1707C23.5825 15.1652 24.6938 16 26 16C27.3062 16 28.4175 15.1652 28.8293 14H35C35.5523 14 36 13.5523 36 13C36 12.4477 35.5523 12 35 12H28.8293C28.4175 10.8348 27.3062 10 26 10C24.6938 10 23.5825 10.8348 23.1707 12H1ZM0 23C0 22.4477 0.447715 22 1 22H4.17071C4.58254 20.8348 5.69378 20 7 20C8.30622 20 9.41746 20.8348 9.82929 22H35C35.5523 22 36 22.4477 36 23C36 23.5523 35.5523 24 35 24H9.82929C9.41746 25.1652 8.30622 26 7 26C5.69378 26 4.58254 25.1652 4.17071 24H1C0.447715 24 0 23.5523 0 23Z" fill="#BFABE0"/>
</svg>
