<svg width="45" height="45" viewBox="0 0 45 45" fill="none" xmlns="http://www.w3.org/2000/svg">
<g clip-path="url(#clip0_27_301)">
<path d="M22.5 45C34.9264 45 45 34.9264 45 22.5C45 10.0736 34.9264 0 22.5 0C10.0736 0 0 10.0736 0 22.5C0 34.9264 10.0736 45 22.5 45Z" fill="#2F89CE"/>
<path d="M10.5195 22.9208L15.6924 24.8497L17.7089 31.3377C17.7966 31.776 18.3227 31.8637 18.6734 31.6007L21.5666 29.2335C21.8297 28.9704 22.268 28.9704 22.6187 29.2335L27.7916 33.0035C28.1423 33.2665 28.6683 33.0912 28.756 32.6528L32.6137 14.241C32.7014 13.8026 32.263 13.3642 31.8246 13.5396L10.5195 21.7811C9.9935 21.9564 9.9935 22.7455 10.5195 22.9208ZM17.4459 23.8853L27.6162 17.6603C27.7916 17.5726 27.9669 17.8357 27.7916 17.9234L19.4624 25.7265C19.1994 25.9895 18.9364 26.3402 18.9364 26.7786L18.6734 28.8828C18.6734 29.1458 18.235 29.2335 18.1473 28.8828L17.0952 25.025C16.8322 24.5867 17.0075 24.0606 17.4459 23.8853Z" fill="white"/>
</g>
<defs>
<clipPath id="clip0_27_301">
<rect width="45" height="45" fill="white"/>
</clipPath>
</defs>
</svg>
