<svg width="45" height="45" viewBox="0 0 45 45" fill="none" xmlns="http://www.w3.org/2000/svg">
<g clip-path="url(#clip0_27_304)">
<path d="M22.5 45C34.9264 45 45 34.9264 45 22.5C45 10.0736 34.9264 0 22.5 0C10.0736 0 0 10.0736 0 22.5C0 34.9264 10.0736 45 22.5 45Z" fill="#7294C7"/>
<path d="M33.532 28.2548C33.532 28.1614 33.4385 28.1614 33.4385 28.068C33.0649 27.3208 32.2243 26.3868 31.1035 25.3593C30.5431 24.8923 30.2629 24.5187 30.0761 24.3319C29.7959 23.9583 29.7959 23.6781 29.8893 23.3045C29.9827 23.0243 30.3563 22.5573 31.0101 21.7167C31.3837 21.2497 31.5705 20.9695 31.8507 20.6893C33.2517 18.8213 33.9055 17.6071 33.7187 17.0467L33.6254 16.9533C33.532 16.8599 33.4385 16.7665 33.2517 16.7665C33.0649 16.6731 32.7847 16.6731 32.5045 16.7665H28.9553C28.8619 16.7665 28.8619 16.7665 28.6751 16.7665C28.5817 16.7665 28.4883 16.7665 28.4883 16.7665H28.3949H28.3015L28.2081 16.8599C28.1147 16.9533 28.1147 16.9533 28.1147 17.0467C27.7411 18.0741 27.2741 18.9147 26.8071 19.8487C26.5269 20.3157 26.2467 20.7827 25.9665 21.1563C25.6863 21.5299 25.4995 21.8101 25.3127 21.9969C25.1259 22.1837 24.9391 22.2771 24.8457 22.4639C24.7523 22.5573 24.5655 22.6507 24.5655 22.5573C24.4721 22.5573 24.3787 22.5573 24.3787 22.4639C24.2853 22.3705 24.1919 22.2771 24.0985 22.1837C24.0051 22.0903 24.0051 21.9035 23.9117 21.7167C23.9117 21.5299 23.9117 21.3431 23.9117 21.2497C23.9117 21.1563 23.9117 20.8761 23.9117 20.6893C23.9117 20.4091 23.9117 20.2223 23.9117 20.1289C23.9117 19.8487 23.9117 19.4751 23.9117 19.1015C23.9117 18.7279 23.9117 18.4477 23.9117 18.2609C23.9117 18.0741 23.9117 17.7939 23.9117 17.6071C23.9117 17.3269 23.9117 17.1401 23.9117 17.0467C23.9117 16.9533 23.8183 16.7665 23.8183 16.6731C23.7249 16.5797 23.6315 16.4863 23.5381 16.3929C23.4447 16.2995 23.2579 16.2995 23.1645 16.2061C22.6975 16.1127 22.1371 16.0193 21.4833 16.0193C19.9888 16.0193 18.9614 16.1127 18.5878 16.2995C18.401 16.3929 18.2142 16.4863 18.1208 16.6731C17.934 16.8599 17.934 16.9533 18.0274 16.9533C18.4944 17.0467 18.868 17.2335 19.0548 17.5137L19.1482 17.7005C19.2416 17.7939 19.2416 17.9807 19.335 18.2609C19.4284 18.5411 19.4284 18.8213 19.4284 19.1949C19.4284 19.7553 19.4284 20.3157 19.4284 20.6893C19.4284 21.1563 19.335 21.4365 19.335 21.7167C19.335 21.9969 19.2416 22.1837 19.1482 22.2771C19.0548 22.4639 19.0548 22.5573 18.9614 22.5573C18.9614 22.5573 18.9614 22.6507 18.868 22.6507C18.7746 22.6507 18.6812 22.7441 18.4944 22.7441C18.401 22.7441 18.2142 22.6507 18.1208 22.5573C17.934 22.4639 17.7472 22.2771 17.6538 22.0903C17.467 21.9035 17.2802 21.6233 17.0934 21.2497C16.9066 20.8761 16.6264 20.5025 16.4396 19.9421L16.2528 19.5685C16.1594 19.3817 15.9726 19.0081 15.7858 18.5411C15.599 18.0741 15.4122 17.7005 15.2254 17.2335C15.132 17.0467 15.0386 16.9533 14.9452 16.8599H14.8518C14.8518 16.8599 14.7584 16.7665 14.665 16.7665C14.5716 16.7665 14.4782 16.6731 14.3848 16.6731H11.0224C10.6488 16.6731 10.462 16.7665 10.3686 16.8599L10.2751 16.9533C10.2751 16.9533 10.2751 17.0467 10.2751 17.1401C10.2751 17.2335 10.2752 17.3269 10.3686 17.5137C10.8356 18.6345 11.396 19.7553 11.9564 20.8761C12.5168 21.9035 13.0772 22.8375 13.4508 23.4913C13.9178 24.1451 14.2914 24.7989 14.7584 25.3593C15.2254 25.9197 15.5056 26.2933 15.599 26.4802C15.7858 26.667 15.8792 26.7603 15.9726 26.8537L16.2528 27.134C16.4396 27.3208 16.7198 27.601 17.0934 27.8812C17.467 28.1614 17.934 28.4416 18.401 28.7218C18.868 29.002 19.4284 29.1888 19.9888 29.3756C20.6426 29.5624 21.203 29.6558 21.7634 29.5624H23.1645C23.4447 29.5624 23.6315 29.469 23.8183 29.2822L23.9117 29.1888C23.9117 29.0954 24.0051 29.0954 24.0051 29.002C24.0051 28.9086 24.0051 28.8152 24.0051 28.6284C24.0051 28.2548 24.0051 27.9746 24.0985 27.6944C24.1919 27.4142 24.1919 27.2274 24.2853 27.0406C24.3787 26.8538 24.4721 26.7604 24.5655 26.667C24.6589 26.5735 24.7523 26.4802 24.7523 26.4802H24.8457C25.0325 26.3868 25.3127 26.4801 25.4995 26.667C25.7797 26.8538 26.0599 27.134 26.2467 27.4142C26.4335 27.6944 26.7137 27.9746 27.0873 28.3482C27.4609 28.7218 27.7411 29.002 27.9279 29.0954L28.2081 29.2822C28.3949 29.3756 28.5817 29.469 28.8619 29.5624C29.1421 29.6558 29.3289 29.6558 29.5157 29.6558L32.6914 29.5624C32.9716 29.5624 33.2517 29.469 33.4385 29.3756C33.6253 29.2822 33.7187 29.1888 33.7187 29.002C33.7187 28.9086 33.7187 28.7218 33.7187 28.6284C33.5319 28.4416 33.532 28.3482 33.532 28.2548Z" fill="white"/>
</g>
<defs>
<clipPath id="clip0_27_304">
<rect width="45" height="45" fill="white"/>
</clipPath>
</defs>
</svg>
