<svg width="45" height="45" viewBox="0 0 45 45" fill="none" xmlns="http://www.w3.org/2000/svg">
<g clip-path="url(#clip0_27_307)">
<path d="M22.5 45C34.9264 45 45 34.9264 45 22.5C45 10.0736 34.9264 0 22.5 0C10.0736 0 0 10.0736 0 22.5C0 34.9264 10.0736 45 22.5 45Z" fill="#48C95F"/>
<path d="M31.4177 13.5703C29.1951 11.3555 26.2317 10.125 23.1037 10.125C16.6006 10.125 11.3323 15.375 11.3323 21.8555C11.3323 23.9062 11.9085 25.957 12.8963 27.6797L11.25 33.75L17.5061 32.1094C19.2348 33.0117 21.128 33.5039 23.1037 33.5039C29.6067 33.5039 34.875 28.2539 34.875 21.7734C34.7927 18.7383 33.6402 15.7852 31.4177 13.5703ZM28.7835 26.0391C28.5366 26.6953 27.3841 27.3516 26.8079 27.4336C26.314 27.5156 25.6555 27.5156 24.997 27.3516C24.5854 27.1875 24.0091 27.0234 23.3506 26.6953C20.3872 25.4648 18.4939 22.5117 18.3293 22.2656C18.1646 22.1016 17.0945 20.707 17.0945 19.2305C17.0945 17.7539 17.8354 17.0977 18.0823 16.7695C18.3293 16.4414 18.6585 16.4414 18.9055 16.4414C19.0701 16.4414 19.3171 16.4414 19.4817 16.4414C19.6463 16.4414 19.8933 16.3594 20.1402 16.9336C20.3872 17.5078 20.9634 18.9844 21.0457 19.0664C21.128 19.2305 21.128 19.3945 21.0457 19.5586C20.9634 19.7227 20.8811 19.8867 20.7165 20.0508C20.5518 20.2148 20.3872 20.4609 20.3049 20.543C20.1402 20.707 19.9756 20.8711 20.1402 21.1172C20.3049 21.4453 20.8811 22.3477 21.7866 23.168C22.939 24.1523 23.8445 24.4805 24.1738 24.6445C24.503 24.8086 24.6677 24.7266 24.8323 24.5625C24.9969 24.3984 25.5732 23.7422 25.7378 23.4141C25.9024 23.0859 26.1494 23.168 26.3963 23.25C26.6433 23.332 28.125 24.0703 28.372 24.2344C28.7012 24.3984 28.8659 24.4805 28.9482 24.5625C29.0305 24.8086 29.0305 25.3828 28.7835 26.0391Z" fill="white"/>
</g>
<defs>
<clipPath id="clip0_27_307">
<rect width="45" height="45" fill="white"/>
</clipPath>
</defs>
</svg>
